/* XPM */
static char * closeA_xpm[] = {
"19 32 4 1",
" 	c #383838",
".	c #FFFFFF",
"+	c #645D5A",
"@	c #5A5854",
"                   ",
"                   ",
"                   ",
"                   ",
"                   ",
"                   ",
"      ..  ..       ",
"      ......       ",
"       ....        ",
"       ....        ",
"      ......       ",
"      ..  ..       ",
"                   ",
"                   ",
"                   ",
"                   ",
"                   ",
"                   ",
"                   ",
"                   ",
"                   ",
"                   ",
"      ++  ++       ",
"      ++++++       ",
"       ++++        ",
"       ++++        ",
"      ++++++       ",
"      +@  ++       ",
"                   ",
"                   ",
"                   ",
"                   "};
