/* XPM */
static char * minimizeI_xpm[] = {
"19 32 3 1",
" 	c #383838",
".	c #FFFFFF",
"+	c #645D5A",
"                   ",
"                   ",
"                   ",
"                   ",
"                   ",
"                   ",
"                   ",
"      ..   ..      ",
"      ... ...      ",
"       .....       ",
"        ...        ",
"         .         ",
"                   ",
"                   ",
"                   ",
"                   ",
"                   ",
"                   ",
"                   ",
"                   ",
"                   ",
"                   ",
"                   ",
"      ++   ++      ",
"      +++ +++      ",
"       +++++       ",
"        +++        ",
"         +         ",
"                   ",
"                   ",
"                   ",
"                   "};
