/* XPM */
static char * frameABR_xpm[] = {
"20 20 6 1",
" 	c None",
".	c #E0E0E0",
"+	c #6D6D6D",
"@	c #5F5F5F",
"#	c #939494",
"$	c #737373",
"               ....+",
"               ....+",
"               ....+",
"               ....+",
"               ....+",
"               ....+",
"               ....+",
"               ....+",
"               ....+",
"               ....+",
"               ....+",
"               ....+",
"               ....+",
"               ....+",
"...................+",
"...................+",
"...................@",
"..................#@",
".................#+ ",
"$$$$$$$$$$$$$$$$+   "};
