/* XPM */
static char * frameATR_xpm[] = {
"5 27 6 1",
" 	c None",
".	c #6D6D6D",
"+	c #E0E0E0",
"@	c #C2C2C2",
"#	c #939494",
"$	c #5F5F5F",
"     ",
"     ",
"     ",
"     ",
"     ",
"     ",
"..   ",
"+@#. ",
"+++#$",
"+++@$",
"++++.",
"++++.",
"++++.",
"++++.",
"++++.",
"++++.",
"++++.",
"++++.",
"++++.",
"++++.",
"++++.",
"++++.",
"++++.",
"++++.",
"++++.",
"++++.",
"++++."};
