/* XPM */
static char * frameATR_xpm[] = {
"5 27 5 1",
" 	c None",
".	c #6D6D6D",
"+	c #BABABA",
"@	c #939494",
"#	c #5F5F5F",
"     ",
"     ",
"     ",
"     ",
"     ",
"     ",
"..   ",
"++@. ",
"+++@#",
"++++#",
"++++.",
"++++.",
"++++.",
"++++.",
"++++.",
"++++.",
"++++.",
"++++.",
"++++.",
"++++.",
"++++.",
"++++.",
"++++.",
"++++.",
"++++.",
"++++.",
"++++."};
