/* XPM */
static char * frameABL_xpm[] = {
"20 20 6 1",
" 	c None",
".	c #6D6D6D",
"+	c #BABABA",
"@	c #5F5F5F",
"#	c #939494",
"$	c #737373",
".++++               ",
".++++               ",
".++++               ",
".++++               ",
".++++               ",
".++++               ",
".++++               ",
".++++               ",
".++++               ",
".++++               ",
".++++               ",
".++++               ",
".++++               ",
".++++               ",
".+++++++++++++++++++",
".+++++++++++++++++++",
"@+++++++++++++++++++",
"@#++++++++++++++++++",
" .#+++++++++++++++++",
"   .$$$$$$$$$$$$$$$$"};
