/* XPM */
static char * frameATL_xpm[] = {
"5 29 5 1",
" 	c None",
".	c #6D6D6D",
"+	c #939494",
"@	c #BABABA",
"#	c #5F5F5F",
"     ",
"     ",
"     ",
"     ",
"     ",
"   ..",
" .+@@",
"#+@@@",
"#@@@@",
".@@@@",
".@@@@",
".@@@@",
".@@@@",
".@@@@",
".@@@@",
".@@@@",
".@@@@",
".@@@@",
".@@@@",
".@@@@",
".@@@@",
".@@@@",
".@@@@",
".@@@@",
".@@@@",
".@@@@",
".@@@@",
".@@@@",
".@@@@"};
