/* XPM */
static char * minimizeA_xpm[] = {
"18 42 112 2",
"  	c None",
". 	c #6D6D6D",
"+ 	c #BCBCBC",
"@ 	c #ECD18E",
"# 	c #E8CB7F",
"$ 	c #EACB7B",
"% 	c #EAD385",
"& 	c #EAD086",
"* 	c #E1C061",
"= 	c #DFB94A",
"- 	c #E9BF49",
"; 	c #E9BF46",
"> 	c #DFBA47",
", 	c #DCC35E",
"' 	c #E4D383",
") 	c #E1BC4A",
"! 	c #E9BC2D",
"~ 	c #EEBC1F",
"{ 	c #F2BD19",
"] 	c #EDBD1F",
"^ 	c #E6BD31",
"/ 	c #DDBD4C",
"( 	c #EAD387",
"_ 	c #E8B92D",
": 	c #F7C117",
"< 	c #FDC20C",
"[ 	c #F9BE00",
"} 	c #FABD00",
"| 	c #FDC20E",
"1 	c #F5C21B",
"2 	c #E5BA30",
"3 	c #E0BE5D",
"4 	c #E8D08A",
"5 	c #DFB748",
"6 	c #F2BF28",
"7 	c #F8BC0C",
"8 	c #FABD02",
"9 	c #FFC000",
"0 	c #FFBF00",
"a 	c #FDBC00",
"b 	c #F8BD0B",
"c 	c #F2BF25",
"d 	c #E0B745",
"e 	c #ECCB84",
"f 	c #E5C878",
"g 	c #E6BA41",
"h 	c #F5BE23",
"i 	c #FCBF0E",
"j 	c #FDC003",
"k 	c #FEBF00",
"l 	c #FFBE00",
"m 	c #FFBE03",
"n 	c #FDC006",
"o 	c #F6BF1C",
"p 	c #E5B93C",
"q 	c #E6C574",
"r 	c #EDCA76",
"s 	c #EABA3C",
"t 	c #F0BA1C",
"u 	c #FAC110",
"v 	c #FAC209",
"w 	c #F6BC01",
"x 	c #F8BB01",
"y 	c #FFC009",
"z 	c #FEC009",
"A 	c #F1BA15",
"B 	c #E6BB39",
"C 	c #E6C870",
"D 	c #F0D387",
"E 	c #E2B744",
"F 	c #F5BF27",
"G 	c #F6BC10",
"H 	c #F6BD0B",
"I 	c #FCC10B",
"J 	c #FDC00D",
"K 	c #F9BC0B",
"L 	c #F6BD0E",
"M 	c #F3C124",
"N 	c #E1B940",
"O 	c #E6CB7A",
"P 	c #DABC64",
"Q 	c #EAB92E",
"R 	c #F9BC14",
"S 	c #FBBD10",
"T 	c #FABD0A",
"U 	c #F9BF13",
"V 	c #F4C01F",
"W 	c #E8BC35",
"X 	c #DEBC5A",
"Y 	c #E7D394",
"Z 	c #E4B949",
"` 	c #EFB82A",
" .	c #F2BB23",
"..	c #F6C022",
"+.	c #F5C120",
"@.	c #EEBD23",
"#.	c #E6BA33",
"$.	c #DFBB4D",
"%.	c #EDD187",
"&.	c #EFCE87",
"*.	c #E8C162",
"=.	c #E1B94A",
"-.	c #E1BA41",
";.	c #E1BB3E",
">.	c #DDBA44",
",.	c #E2C25F",
"'.	c #E8CE81",
").	c #EAD28C",
"!.	c #E8CF7F",
"~.	c #E7CE7A",
"{.	c #E8D181",
"].	c #B3922C",
". . . . . . . . . . . . . . . . . . ",
"+ + + + + + + + + + + + + + + + + + ",
"+ + + + + + + + + + + + + + + + + + ",
"+ + + + + + + + + + + + + + + + + + ",
"+ + + + + + + + + + + + + + + + + + ",
"+ + + + + + + + + + + + + + + + + + ",
"+ + + + + + + @ # $ % + + + + + + + ",
"+ + + + + & * = - ; > , ' + + + + + ",
"+ + + + + ) ! ~ { { ] ^ / ( + + + + ",
"+ + + + * _ : < [ } | 1 2 3 + + + + ",
"+ + + 4 5 6 7 8 9 0 a b c d e + + + ",
"+ + + f g h i j k l m n o p q + + + ",
"+ + + r s t u v w x y z A B C + + + ",
"+ + + D E F G H I J K L M N O + + + ",
"+ + + + P Q R S K T U V W X + + + + ",
"+ + + + Y Z `  ...+.@.#.$.%.+ + + + ",
"+ + + + + &.*.=.-.;.>.,.'.+ + + + + ",
"+ + + + + + + ).!.~.{.+ + + + + + + ",
"+ + + + + + + + + + + + + + + + + + ",
"+ + + + + + + + + + + + + + + + + + ",
"+ + + + + + + + + + + + + + + + + + ",
". . . . . . . . . . . . . . . . . . ",
"+ + + + + + + + + + + + + + + + + + ",
"+ + + + + + + + + + + + + + + + + + ",
"+ + + + + + + + + + + + + + + + + + ",
"+ + + + + + + + + + + + + + + + + + ",
"+ + + + + + + + + + + + + + + + + + ",
"+ + + + + + + @ # $ % + + + + + + + ",
"+ + + + + & * = - ; > , ' + + + + + ",
"+ + + + + ) ! ~ { { ] ^ / ( + + + + ",
"+ + + + * _ : < [ } | 1 2 3 + + + + ",
"+ + + 4 5 6 7 8 9 0 a b c d e + + + ",
"+ + + f g h ].].].].].].o p q + + + ",
"+ + + r s t ].].].].].].A B C + + + ",
"+ + + D E F G H I J K L M N O + + + ",
"+ + + + P Q R S K T U V W X + + + + ",
"+ + + + Y Z `  ...+.@.#.$.%.+ + + + ",
"+ + + + + &.*.=.-.;.>.,.'.+ + + + + ",
"+ + + + + + + ).!.~.{.+ + + + + + + ",
"+ + + + + + + + + + + + + + + + + + ",
"+ + + + + + + + + + + + + + + + + + ",
"+ + + + + + + + + + + + + + + + + + "};
