/* XPM */
static char * app_16x16_xpm[] = {
"16 16 42 1",
" 	c None",
".	c #204A87",
"+	c #729FCF",
"@	c #3465A4",
"#	c #888A85",
"$	c #FFFFFF",
"%	c #E9E8E6",
"&	c #E8E8E5",
"*	c #E5E6E3",
"=	c #E5E5E2",
"-	c #E3E4E1",
";	c #E2E3E0",
">	c #E0E2DF",
",	c #E6E6E4",
"'	c #E5E5E3",
")	c #E4E4E2",
"!	c #E3E3E1",
"~	c #E1E2DF",
"{	c #E0E1DE",
"]	c #DFE0DC",
"^	c #E1E2DE",
"/	c #E0E1DD",
"(	c #DEDFDC",
"_	c #DDDEDA",
":	c #E3E4E0",
"<	c #E2E2DF",
"[	c #DEDFDB",
"}	c #DDDDD9",
"|	c #DCDCD9",
"1	c #E0E0DD",
"2	c #DDDEDB",
"3	c #DCDDD9",
"4	c #DBDBD8",
"5	c #DADAD7",
"6	c #DFDFDC",
"7	c #DDDFDB",
"8	c #DDDED9",
"9	c #DBDCD9",
"0	c #DADBD7",
"a	c #D8DAD6",
"b	c #D8D9D5",
"c	c #9C9E99",
"                ",
"                ",
"  ............. ",
"  .+++++++++++. ",
"  .+@@@@@@@@@+. ",
"  #$%&*=---;>$# ",
"  #$,')!~~~{]$# ",
"  #$'-;^~~/(_$# ",
"  #$'-;^~~/(_$# ",
"  #$:<{][[[}|$# ",
"  #$:<{][[[}|$# ",
"  #${1]2[[345$# ",
"  #$6789000ab$# ",
"  #$$$$$$$$$$$# ",
"  ############c ",
"                "};
