/* XPM */
static char * home_16x16_xpm[] = {
"16 16 56 1",
" 	c None",
".	c #204A87",
"+	c #29528B",
"@	c #A9BFDA",
"#	c #C8D9EC",
"$	c #97B0D1",
"%	c #9EBADA",
"&	c #7CA1CD",
"*	c #7BA1CD",
"=	c #7896BE",
"-	c #224B88",
";	c #28528D",
">	c #85A4CC",
",	c #5F88BC",
"'	c #5E88BC",
")	c #5078AF",
"!	c #2E5690",
"~	c #ACC2DC",
"{	c #C7D9EC",
"]	c #C4D6E9",
"^	c #224C88",
"/	c #244D8B",
"(	c #2A528C",
"_	c #A7BEDA",
":	c #ADC8E3",
"<	c #8FB3D9",
"[	c #C4D7EB",
"}	c #BCD1E6",
"|	c #C0D4EA",
"1	c #A8C4E1",
"2	c #8EB3D8",
"3	c #BCD2E8",
"4	c #80A4CD",
"5	c #325B94",
"6	c #B8CFE7",
"7	c #5F85B6",
"8	c #5E85B5",
"9	c #B5CDE6",
"0	c #3A639B",
"a	c #789DC8",
"b	c #4C75A8",
"c	c #B1CAE4",
"d	c #376098",
"e	c #6C93BF",
"f	c #335D95",
"g	c #2A558F",
"h	c #355E97",
"i	c #AAC5E2",
"j	c #8AAFD7",
"k	c #2A548F",
"l	c #A2C0DF",
"m	c #86ACD5",
"n	c #29548F",
"o	c #95B5D9",
"p	c #9ABADD",
"q	c #26508D",
"                ",
"  .....         ",
" +@###@+        ",
".$%&*&%=......-;",
".>,''')!~{{{{{]^",
"/^....(_:<<<<<[.",
"^}|||||12<<<<<|.",
".3<<<<4554<<<<3.",
".6<<27;88;72<<6.",
".9<400abba004<9.",
".c<d7efggfe7h<c.",
".ijjjkkkkkkjjji.",
".lmmmnnnnnnmmml.",
"-oppppppppppppo^",
"q-............- ",
"                "};
