/* XPM */
static char * xterm_16x16_xpm[] = {
"16 16 78 1",
" 	c None",
".	c #A6A9A4",
"+	c #F7F7F6",
"@	c #BCC0B8",
"#	c #809DC4",
"$	c #7899C2",
"%	c #7193BF",
"&	c #688FBD",
"*	c #6089BA",
"=	c #5785B8",
"-	c #4F80B5",
";	c #467BB3",
">	c #3F75B0",
",	c #D0D4CE",
"'	c #91B4E2",
")	c #87AFDF",
"!	c #7DA9DD",
"~	c #73A3DA",
"{	c #699DD7",
"]	c #6097D4",
"^	c #5691D1",
"/	c #4D8BCE",
"(	c #3A72AE",
"_	c #8CB1E1",
":	c #82ABDE",
"<	c #77A5DB",
"[	c #6EA0D9",
"}	c #649AD5",
"|	c #5B94D3",
"1	c #518ED0",
"2	c #4788CD",
"3	c #3570AE",
"4	c #7B9BC2",
"5	c #86AEDF",
"6	c #7CA8DD",
"7	c #73A2DA",
"8	c #699CD7",
"9	c #5F96D4",
"0	c #5590D1",
"a	c #4B8ACE",
"b	c #4284CB",
"c	c #306CAC",
"d	c #7797C1",
"e	c #80ABDE",
"f	c #77A5DA",
"g	c #6D9ED8",
"h	c #6399D5",
"i	c #5993D2",
"j	c #508DD0",
"k	c #4687CC",
"l	c #3D81C9",
"m	c #2C6AAB",
"n	c #7295C0",
"o	c #6A8FBD",
"p	c #618ABA",
"q	c #5985B8",
"r	c #5180B5",
"s	c #487CB4",
"t	c #4077B0",
"u	c #3771AE",
"v	c #2F6CAC",
"w	c #2767A9",
"x	c #585857",
"y	c #686767",
"z	c #6F706F",
"A	c #4F4F50",
"B	c #404040",
"C	c #3C3C3C",
"D	c #494949",
"E	c #5C5B5C",
"F	c #50504F",
"G	c #444444",
"H	c #5F615D",
"I	c #515151",
"J	c #2E2E2E",
"K	c #414141",
"L	c #6D6E6B",
"M	c #DFE0DC",
"  ............  ",
" .++++++++++++. ",
" .@##$%&*=-;>,. ",
" .@#')!~{]^/(,. ",
" .@#_:<[}|123,. ",
" .@4567890abc,. ",
" .@defghijklm,. ",
" .@nopqrstuvw,. ",
" .,,,,,,,,,,,,. ",
"  ............  ",
"      ....      ",
"   xyzABCDEFG   ",
" .............. ",
" .HIJIJIJKJKJL. ",
" .MMMMMMMMMMMM. ",
"  ............  "};
