/* XPM */
static char * icewm_ubuntu_xpm[] = {
"106 20 549 2",
"  	c None",
". 	c #E0E0E0",
"+ 	c #E0DFDF",
"@ 	c #DFDFDF",
"# 	c #DDDDDD",
"$ 	c #DDDEDE",
"% 	c #DEDEDE",
"& 	c #DEDDDE",
"* 	c #DEDEDD",
"= 	c #E48A88",
"- 	c #E17675",
"; 	c #E6CDCB",
"> 	c #DEDDDD",
", 	c #DFDFDE",
"' 	c #DEDFDE",
") 	c #DEDFDF",
"! 	c #DFDEDF",
"~ 	c #DFE0DF",
"{ 	c #DFDFE0",
"] 	c #E0DFE0",
"^ 	c #E0E0DF",
"/ 	c #DFE0E0",
"( 	c #DBDBDB",
"_ 	c #DCDBDB",
": 	c #EAD1C5",
"< 	c #F0BCA5",
"[ 	c #F0B79D",
"} 	c #EFCCBC",
"| 	c #E37C78",
"1 	c #D61615",
"2 	c #D40000",
"3 	c #DF5D5C",
"4 	c #DCDCDC",
"5 	c #DDDCDC",
"6 	c #DCDDDC",
"7 	c #DDDDDC",
"8 	c #DDDCDD",
"9 	c #DCDCDD",
"0 	c #DCDDDD",
"a 	c #DDDEDD",
"b 	c #DDDDDE",
"c 	c #D9D9D8",
"d 	c #D9D9D9",
"e 	c #D9D8D9",
"f 	c #DBD9D7",
"g 	c #F1A07D",
"h 	c #F35919",
"i 	c #F44D07",
"j 	c #F34B05",
"k 	c #F38355",
"l 	c #E36559",
"m 	c #D61717",
"n 	c #D40706",
"o 	c #E15757",
"p 	c #DADADA",
"q 	c #D9DADA",
"r 	c #DADAD9",
"s 	c #DBDADA",
"t 	c #DADBDA",
"u 	c #DBDADB",
"v 	c #DBDBDA",
"w 	c #DADADB",
"x 	c #DADBDB",
"y 	c #D7D7D6",
"z 	c #D6D6D6",
"A 	c #D7D6D7",
"B 	c #F3C68F",
"C 	c #F4C38A",
"D 	c #F1B090",
"E 	c #F35C1D",
"F 	c #F44B05",
"G 	c #F46427",
"H 	c #ED8A70",
"I 	c #E15C55",
"J 	c #DE4945",
"K 	c #EEA7A0",
"L 	c #D8D8D7",
"M 	c #D7D7D8",
"N 	c #D8D8D8",
"O 	c #D7D8D8",
"P 	c #D7D7D7",
"Q 	c #D8D7D7",
"R 	c #D7D8D7",
"S 	c #D8D7D8",
"T 	c #D9D8D8",
"U 	c #D8D9D8",
"V 	c #D8D8D9",
"W 	c #D8D9D9",
"X 	c #D4D4D3",
"Y 	c #D4D4D4",
"Z 	c #F3C58C",
"` 	c #F99315",
" .	c #F9A339",
"..	c #F3C49C",
"+.	c #F29A75",
"@.	c #F47F4E",
"#.	c #F48556",
"$.	c #F47742",
"%.	c #F37C4B",
"&.	c #F1936F",
"*.	c #F29A79",
"=.	c #F3936A",
"-.	c #E7D2C8",
";.	c #D5D5D5",
">.	c #D6D5D5",
",.	c #D5D5D4",
"'.	c #D5D6D5",
").	c #D6D6D5",
"!.	c #B6B6B5",
"~.	c #2C2C2C",
"{.	c #D3D2D2",
"].	c #B6B5B5",
"^.	c #D6D5D6",
"/.	c #D5D6D6",
"(.	c #B6B6B6",
"_.	c #D3D3D3",
":.	c #D6D7D6",
"<.	c #D7D6D6",
"[.	c #D1D1D1",
"}.	c #D2D2D1",
"|.	c #F1D7B8",
"1.	c #F89E2E",
"2.	c #FB8B00",
"3.	c #FA9821",
"4.	c #F6C993",
"5.	c #D2D1D1",
"6.	c #F2B094",
"7.	c #F36E36",
"8.	c #F34E08",
"9.	c #F44802",
"0.	c #D2D3D3",
"a.	c #D3D3D2",
"b.	c #D2D3D2",
"c.	c #757675",
"d.	c #A7A7A7",
"e.	c #B3B3B3",
"f.	c #D0D0D0",
"g.	c #D4D3D3",
"h.	c #D3D4D3",
"i.	c #B3B4B3",
"j.	c #D1D1D0",
"k.	c #D4D3D4",
"l.	c #D0CFCE",
"m.	c #D0CFCF",
"n.	c #F3C996",
"o.	c #FA8F0B",
"p.	c #FA8E07",
"q.	c #F9AD4F",
"r.	c #D0D0CF",
"s.	c #CFD0CF",
"t.	c #F0B49A",
"u.	c #F35F21",
"v.	c #F34800",
"w.	c #F45C1D",
"x.	c #D8D1CD",
"y.	c #CFCFCF",
"z.	c #D1D0D0",
"A.	c #CBCCCB",
"B.	c #383838",
"C.	c #4A4A4A",
"D.	c #656564",
"E.	c #D0D1D0",
"F.	c #D1D0D1",
"G.	c #B1B1B1",
"H.	c #CECDCD",
"I.	c #CFCFCE",
"J.	c #C9C8C9",
"K.	c #CECECE",
"L.	c #D1D2D1",
"M.	c #CAC9C9",
"N.	c #D1D2D0",
"O.	c #D2D1D0",
"P.	c #D1D2D2",
"Q.	c #CDCCCC",
"R.	c #CDCDCD",
"S.	c #D8CFCB",
"T.	c #F19D7A",
"U.	c #F19971",
"V.	c #F3B280",
"W.	c #F89E30",
"X.	c #FA971C",
"Y.	c #F7C990",
"Z.	c #CDCDCC",
"`.	c #F2885B",
" +	c #F46225",
".+	c #F46226",
"++	c #F5C9B6",
"@+	c #CECECD",
"#+	c #969695",
"$+	c #393939",
"%+	c #A9A9A9",
"&+	c #303030",
"*+	c #C1C1C1",
"=+	c #AFAFAF",
"-+	c #919191",
";+	c #3F3F3F",
">+	c #333333",
",+	c #6A6A6A",
"'+	c #6A6A69",
")+	c #C9C9C9",
"!+	c #AFB0AF",
"~+	c #CBCBCB",
"{+	c #CCCBCB",
"]+	c #CACBCA",
"^+	c #7C7C7C",
"/+	c #414140",
"(+	c #333332",
"_+	c #717070",
":+	c #CFCECE",
"<+	c #8D8E8D",
"[+	c #464646",
"}+	c #363636",
"|+	c #616161",
"1+	c #C1C1C0",
"2+	c #C9CAC9",
"3+	c #313131",
"4+	c #949494",
"5+	c #CCCCCB",
"6+	c #C0C0C0",
"7+	c #606060",
"8+	c #343434",
"9+	c #717170",
"0+	c #CBCACB",
"a+	c #9A9A9A",
"b+	c #444444",
"c+	c #4D4D4D",
"d+	c #B4B4B3",
"e+	c #898888",
"f+	c #3D3D3D",
"g+	c #323232",
"h+	c #3C3C3C",
"i+	c #858685",
"j+	c #F1A483",
"k+	c #F44C06",
"l+	c #F34F0A",
"m+	c #F38551",
"n+	c #F6B66D",
"o+	c #FA9E2C",
"p+	c #F6D7B0",
"q+	c #CBCACA",
"r+	c #CACACA",
"s+	c #F0C5B2",
"t+	c #F2AE95",
"u+	c #F3AD92",
"v+	c #555555",
"w+	c #706F6F",
"x+	c #424242",
"y+	c #858585",
"z+	c #ADADAD",
"A+	c #636362",
"B+	c #C5C4C5",
"C+	c #BEBEBD",
"D+	c #777777",
"E+	c #636262",
"F+	c #C5C5C5",
"G+	c #BEBEBE",
"H+	c #C9C9C8",
"I+	c #CCCCCC",
"J+	c #4C4C4B",
"K+	c #B2B2B2",
"L+	c #C3C3C3",
"M+	c #A5A5A5",
"N+	c #9C9C9C",
"O+	c #B5B4B4",
"P+	c #CDCCCB",
"Q+	c #585757",
"R+	c #5F5F5F",
"S+	c #ADAEAD",
"T+	c #C9CAC8",
"U+	c #595959",
"V+	c #5F5E5E",
"W+	c #C5C6C5",
"X+	c #BEBDBD",
"Y+	c #CCCDCC",
"Z+	c #AEAEAD",
"`+	c #666666",
" @	c #C2C2C1",
".@	c #C7C8C6",
"+@	c #666766",
"@@	c #515151",
"#@	c #CCCDCD",
"$@	c #BBBBBA",
"%@	c #A3A3A3",
"&@	c #AFAFAE",
"*@	c #C8C8C8",
"=@	c #F1A17F",
"-@	c #F44F0A",
";@	c #F58550",
">@	c #F8B971",
",@	c #FA9D29",
"'@	c #F6D3A8",
")@	c #C8C8C7",
"!@	c #E69A97",
"~@	c #E26F6D",
"{@	c #E26D6C",
"]@	c #E2C4C2",
"^@	c #C8C9C7",
"/@	c #CAC9C8",
"(@	c #B3B3B2",
"_@	c #A6A6A5",
":@	c #797A79",
"<@	c #454545",
"[@	c #ABABAA",
"}@	c #969595",
"|@	c #ABABAB",
"1@	c #B2B3B1",
"2@	c #CACAC9",
"3@	c #959595",
"4@	c #C7C6C6",
"5@	c #ACACAB",
"6@	c #BFBFBF",
"7@	c #2D2D2D",
"8@	c #AAABAA",
"9@	c #A4A4A3",
"0@	c #C7C7C6",
"a@	c #BDBDBC",
"b@	c #B9B9B8",
"c@	c #A6A6A6",
"d@	c #BCBDBC",
"e@	c #2F2F2F",
"f@	c #8A8A8A",
"g@	c #CACBC9",
"h@	c #CBCBCA",
"i@	c #C6C6C5",
"j@	c #DCCCC4",
"k@	c #F29871",
"l@	c #F5966D",
"m@	c #F7B688",
"n@	c #F9A237",
"o@	c #FA9415",
"p@	c #F7BF7B",
"q@	c #DB403F",
"r@	c #D40605",
"s@	c #D40A0A",
"t@	c #EDB8B6",
"u@	c #C6C6C4",
"v@	c #C6C7C6",
"w@	c #747474",
"x@	c #414141",
"y@	c #C2C1C1",
"z@	c #A7A7A6",
"A@	c #2E2E2E",
"B@	c #C7C7C7",
"C@	c #AAA9A9",
"D@	c #C4C4C3",
"E@	c #C5C4C3",
"F@	c #ACACAC",
"G@	c #C2C3C2",
"H@	c #C8C7C7",
"I@	c #C8C7C6",
"J@	c #4E4E4E",
"K@	c #A9AAA9",
"L@	c #C5C4C4",
"M@	c #AAAAA9",
"N@	c #C4C5C4",
"O@	c #ADACAC",
"P@	c #C3C3C2",
"Q@	c #A8A7A7",
"R@	c #545454",
"S@	c #A2A2A1",
"T@	c #F3D0A6",
"U@	c #F99313",
"V@	c #FA8C04",
"W@	c #F9A238",
"X@	c #F3D4AE",
"Y@	c #C4C4C2",
"Z@	c #E27C7A",
"`@	c #DA2F2F",
" #	c #3A3A3A",
".#	c #656565",
"+#	c #C4C4C4",
"@#	c #A7A8A6",
"##	c #C5C5C4",
"$#	c #939393",
"%#	c #A8A8A7",
"&#	c #AEADAD",
"*#	c #C2C2C0",
"=#	c #B7B7B7",
"-#	c #929292",
";#	c #C0C0BF",
">#	c #A09F9F",
",#	c #A8A8A8",
"'#	c #C2C2C2",
")#	c #C6C5C4",
"!#	c #C2C3C1",
"~#	c #B9B9B9",
"{#	c #AFAFAD",
"]#	c #7A7B7A",
"^#	c #C6C5C5",
"/#	c #C0C1C0",
"(#	c #D8CEC2",
"_#	c #F6A948",
":#	c #FB8B01",
"<#	c #FA9B24",
"[#	c #F5C794",
"}#	c #CAC2C1",
"|#	c #E4BCB9",
"1#	c #CEC2C1",
"2#	c #E8ABA8",
"3#	c #E06766",
"4#	c #D71F1F",
"5#	c #D40303",
"6#	c #D50A0A",
"7#	c #E88D8C",
"8#	c #929291",
"9#	c #848484",
"0#	c #B9BAB9",
"a#	c #B5B5B4",
"b#	c #727272",
"c#	c #A5A5A4",
"d#	c #BCBDBB",
"e#	c #4A4A49",
"f#	c #727271",
"g#	c #BFC0BF",
"h#	c #A5A6A4",
"i#	c #BFBFBE",
"j#	c #C3C2C1",
"k#	c #666565",
"l#	c #AAABA9",
"m#	c #C3C2C2",
"n#	c #9E9E9E",
"o#	c #B0B0AF",
"p#	c #989898",
"q#	c #B2B1B0",
"r#	c #525252",
"s#	c #C3C3C1",
"t#	c #B2B2B1",
"u#	c #C0C0BE",
"v#	c #565656",
"w#	c #5E5E5E",
"x#	c #494948",
"y#	c #737373",
"z#	c #A6A7A5",
"A#	c #999998",
"B#	c #7F7F7F",
"C#	c #C4C3C2",
"D#	c #BFBFBD",
"E#	c #F2CFA5",
"F#	c #F89F30",
"G#	c #FAAD4E",
"H#	c #F0B9A4",
"I#	c #DE5A59",
"J#	c #D92E2E",
"K#	c #DA3332",
"L#	c #D82726",
"M#	c #D92828",
"N#	c #E15959",
"O#	c #E36968",
"P#	c #E67C7B",
"Q#	c #C0BFBF",
"R#	c #BCBCBB",
"S#	c #838282",
"T#	c #888887",
"U#	c #636363",
"V#	c #BBBABA",
"W#	c #BEBDBC",
"X#	c #BDBEBC",
"Y#	c #C0C1BF",
"Z#	c #6B6B6A",
"`#	c #C1C1BF",
" $	c #7D7D7D",
".$	c #323332",
"+$	c #696969",
"@$	c #8B8B8B",
"#$	c #A4A4A4",
"$$	c #B3B4B2",
"%$	c #5C5C5B",
"&$	c #C1C0C0",
"*$	c #4B4C4B",
"=$	c #484848",
"-$	c #9A9B9A",
";$	c #F3D8B6",
">$	c #F5CEAC",
",$	c #E58682",
"'$	c #D50E0E",
")$	c #D40101",
"!$	c #D71818",
"~$	c #E98373",
"{$	c #F4A768",
"]$	c #F4A253",
"^$	c #F1C9AA",
"/$	c #BDBCBB",
"($	c #BDBDBD",
"_$	c #BEBEBC",
":$	c #BDBEBD",
"<$	c #A2A1A1",
"[$	c #BABAB9",
"}$	c #BFBEBD",
"|$	c #BFBEBE",
"1$	c #BEBFBD",
"2$	c #B9BAB8",
"3$	c #E8A19F",
"4$	c #DE4A4A",
"5$	c #D82020",
"6$	c #E26362",
"7$	c #F3A368",
"8$	c #FA9820",
"9$	c #FA8F0A",
"0$	c #F8B057",
"a$	c #BABBBA",
"b$	c #BBBBB9",
"c$	c #A0A09F",
"d$	c #B8B8B7",
"e$	c #B8B9B7",
"f$	c #BCBBBA",
"g$	c #BBBCBA",
"h$	c #BCBCBA",
"i$	c #BBBBBB",
"j$	c #BCBBBB",
"k$	c #BBBCBB",
"l$	c #B7B7B6",
"m$	c #B8B7B7",
"n$	c #BBB8B8",
"o$	c #F6BC7A",
"p$	c #FA9315",
"q$	c #FAAC4D",
"r$	c #B8B7B6",
"s$	c #B8B8B8",
"t$	c #B9B8B7",
"u$	c #9D9D9C",
"v$	c #B5B6B4",
"w$	c #B9B9B7",
"x$	c #9E9D9C",
"y$	c #B8B9B8",
"z$	c #BAB9B8",
"A$	c #BABAB8",
"B$	c #BAB9B9",
"C$	c #C1BEB8",
"D$	c #F6BB70",
"E$	c #FAB158",
"F$	c #F8DDBA",
"G$	c #B6B6B4",
"H$	c #B7B6B5",
"I$	c #B7B7B5",
"J$	c #B6B7B5",
"K$	c #B7B6B6",
"L$	c #B6B7B6",
"M$	c #B7B8B6",
"N$	c #B3B3B1",
"O$	c #B4B4B2",
"P$	c #B4B3B2",
"Q$	c #B4B3B3",
"R$	c #B5B5B2",
"S$	c #B4B5B2",
"T$	c #B5B4B3",
"U$	c #B5B5B3",
"V$	c #B4B5B3",
"W$	c #B4B4B4",
"X$	c #B4B5B4",
". . . . . . . . . . . . . . . . . . + @ @ @ @ . . . . . . . . . . . . . . . . . . . . . . . . . . . . . . . . . . . . . . . . . . . . . . . . . . . . . . . . . . . . . . . . . . . . . . . . . . . . . . . . . . . ",
"# $ $ $ $ % % & & % % * * * * = - ; > > > > > , @ @ @ ' ' ) , ) @ @ @ ! @ ) ! @ @ @ @ @ @ , @ @ @ @ @ @ @ @ @ @ @ + @ ~ { ~ ] @ @ + ^ ~ + ] / / / / ^ { + ~ + / ^ @ ~ @ ^ / . . . . / ^ ^ . { ^ . ] ~ . . . . / / . ",
"( _ _ _ _ _ _ ( ( ( : < [ } | 1 2 3 _ _ _ _ _ 4 5 6 4 6 4 6 4 6 6 4 7 6 7 # 8 6 9 # 0 # 5 7 9 8 0 4 0 8 9 5 # 8 # 0 7 8 7 6 # 9 # # # 0 # # # # # # # # > # # # # # # # a a # # > # # > # $ > * $ # > # b > * # * $ ",
"c d d e e d d d f g h i j k l m n o c c c c c p q p r r p r r r r p p p p p p s p p t p p p t p t p p u t s p s s t p t v s w t u ( t v v x p ( v x p v ( t ( t v ( v x v v ( ( ( v v ( ( ( v ( ( ( ( ( ( _ ( ( ( _ ",
"y y y z z A A B C D E F i G H I J K z z z z z L M N O P P Q L R Q P Q O L Q L N L N L S N O L L S L L L L N L O N N N L N N N N N N T U N U U N N U T N T N N U N T U N N c d T T T T T N c d V U T e N c d T c W c ",
"X X X X X Y Z `  ...+.@.#.$.%.&.*.=.-.Y Y Y Y ;.>.;.;.;.;.,.,.'.>.;.;.;.'.;.;.).'.;.'.;.;.'.;.;.'.!.~.{.].~.{.;.^.^.'.).'.>.z './.).^.>././.z ^.z ).z z (.~._.z z ).z z z z z z z z z :.<.z z z z z z z z <.<.<.:.y ",
"[.}.}.}.}.|.1.2.3.4.5.5.}.}.6.7.8.9.=.}.}.}.}.0.a.b._.c.~.d.a.a._._.0.b._._._.a._.a.a._._.a.a.a._.e.~.f.e.~.f._._.a._._.X g.a.h._.h._._._.X h.e.~.f.h.h.i.~.j.X h._.g.X X Y X k.g.k.g.Y Y Y Y k.X g.X Y X X Y Y Y Y ",
"l.m.m.m.m.n.o.p.q.r.r.s.s.s.s.t.u.v.w.x.y.y.y.f.z.j.A.B.C.D.z.f.r.z.j.f.E.E.z.j.z.j.j.F.f.j.f.F.j.G.~.H.I.J.j.j.[.j.[.[.j.[.j.[.j.j.[.j.[.j.[.G.~.K.L.[.y.M.N.[.j.j.j.[.5.[.L.L.}.[.O.[.L.[.[.[.[.}.5.}.5.5.5.[.P.}.",
"Q.R.S.T.U.V.W.X.Y.R.R.R.R.R.R.Z.`. +.+++Z.Z.Z.@+K.@+#+$+%+&+*+@+@+=+~.-+;+>+,+M.K.=+~.-+;+>+'+)+K.!+~.~+=+~.{+@+]+^+/+(+$+_+:+I.<+[+>+}+|+1+2+3+~.(+(+4+!+~.5+I.6+7+8+B.9+0+I.!+~.a+b+3+c+d+I.I.e+f+g+h+i+y.y.I.y.y.",
"]+]+j+k+l+m+n+o+p+q+q+q+q+q+q+r+s+t+u+]+]+]+]+5+A.5+v+w+{+x+y+5+A.z+~.A+B+C+C.D+5+z+~.E+F+G+C.D+5+z+~.H+z+~.)+I+'+J+K+5+L+M+5+5+N+O+P+G+Q+R+I+z+~.M.I+Q.S+~.T+I+U+V+W+X+C.D+Y+Z+~.`+ @.@+@@@#@$@~.%@Z. @&@Z.I+Z.Z.Z.",
"*@*@=@j -@;@>@,@'@*@*@*@*@*@*@)@!@~@{@]@^@^@^@/@H+(@~._@/@:@<@)+T+[@~.K+)+M.}@f+)+|@~.1@H+2@3@f+2@|@~.4@5@~.4@6@7@8@)+M.)+2@2@M.2@2@2@2@9@8+2@5@~.0@2@2@5@~.0@a@~.K+r+r+#+f+r+5@~.b@r+2@c@&+r+d@e@f@1+g@r+]+r+r+r+h@",
"i@i@j@k@l@m@n@o@p@i@i@W+W+W+W+W+q@r@s@t@u@u@u@v@0@w@x@0@0@=+~.%@0@%+~.y@v@v@z@A@0@%+~. @B@B@z@A@.@C@~.D@C@~.E@F@~.G@B@H@B@B@0@I@#+J@}+8+>+~.H@K@~.L@)@H@M@~.N@O@~.P@H@)@Q@A@)@K@~.N@B@H@M@~.)@)@a+R@g+J@S@)@)@)@)@*@",
"L+L+L+L+L+T@U@V@W@X@Y@P@L+L+L+Z@m 2 `@D@D@D@D@N@1+ #&+$+$+$+~..#+#@#~.S+####$#h+N@%#~.&#+###$#h+##%#~. @%#~.*#$@7@%#######L@F+=#A@-#;###>#~.F+,#~.'#)###%#~.!#~#~.{#F+W+$#h+F+,#~.'#u@u@%#~.######F+1+]#$+W+^#W+^###",
"/#1+1+1+1+(#_#:#<#[#}#|#1#2#3#4#5#6#7#1+1+1+1+ @8#A@%#(@(@(@9#3+0#M+~.7+d@a#C.b#'#c#~.7+d#].e#f#P@c#~.g#h#~.i#j#k#C.l#m#$@n#G@o#~.p#P@q#r#~.s#t#~.5@m#P@_@~.u#P@v#w#a@a#x#y#P@_@~.;#P@P@z#~.P@o#A#C+1+B# #C#P@L+P@P@",
"D#D#D#D#i#i#E#F#G#H#I#J#K#L#M#N#O#P#i#i#i#i#i#Q#v#7+i#i#Q#g#R# #S#9@~.T#f+g+U#V#6@9@~.T#f+g+U#$@;#9@~.W#9@~.X#Y#R#y#f+g+B.Z#`#;# $$+.$e#9#~.;#;#+$8+8+@$#$~.C+6+$$%$8+}+,+d#1+9@~.C+&$1+#$~.Y#|@*$>+3+=$-$`#/#`#/#1+",
"R#R#R#R#R#R#R#;$>$,$'$2 )$!$~${$]$^$/$R#R#R#R#X#X#X#a@W#($W#_$:$X#<$~.[$:$X#:$_$_$<$~.[$_$X+a@($_$a@a@($:$X+C+W#a@:$a@:$:$_$X+_$C+C+_$C+C+_$C+C+C+C+C+C+C+C+C+C+C+C+C+C+C+C+C+}$|$1$C+C+C+C+|$C+C+1$|$C+C+C+C+C+C+}$",
"2$0#0#0#0#0#0#0#[$3$4$M#5$6$7$8$9$0$[$[$[$[$[$a$b$$@b$$@$@$@$@$@$@c$~.d$$@$@$@b$b$c$~.e$$@$@$@$@$@$@$@f$f$g$h$h$h$$@h$h$f$$@$@i$f$j$g$f$g$j$h$f$k$g$g$h$h$k$j$h$R#h$h$R#j$j$i$R#R#R#h$R#R#h$R#R#R#R#R#R#R#R#R#R#R#R#",
"l$l$l$l$l$l$l$l$m$m$m$m$n$m$o$p$2.q$r$r$r$r$r$e$d$e$d$s$t$d$e$b@s$u$~.v$w$d$w$w$w$x$~.].b@t$e$y$t$w$b@b@b@b@b@w$t$b@w$b@b@b@b@w$b@b@b@b@b@b@b@2$z$2$b@b@z$2$b@b@~#A$b@b@A$2$z$B$A$2$z$A$z$2$A$A$2$[$z$B$[$2$A$A$z$z$",
"a#a#a#a#a#a#a#a#a#a#a#a#a#a#C$D$E$F$a#a#a#a#a#G$!.!.!.!.G$H$!.!.!.!.H$!.!.H$H$I$!.J$J$J$H$!.J$H$H$I$I$K$I$I$I$H$(.I$H$l$J$(.H$l$J$K$H$K$I$J$L$l$H$l$J$L$l$l$I$(.l$I$l$I$I$I$l$l$l$l$l$l$l$l$r$l$l$l$l$r$l$r$M$r$l$l$",
"t#(@(@(@(@(@(@(@N$N$N$N$1@1@1@t#t#t#t#t#t#t#t#O$P$Q$d+P$$$e.O$d+O$d+O$d+d+P$d+O$d+d+d+O$O$d+O$d+d+d+d+d+d+O$R$d+S$d+d+d+d+O$d+T$U$O$U$V$d+T$d+V$U$U$T$d+d+U$T$d+T$d+T$d+U$T$a#W$V$a#U$T$V$a#a#U$T$U$X$a#V$O+U$d+U$O+"};
