/* XPM */
static char * taskbuttonactive_xpm[] = {
"1 23 21 1",
" 	c None",
".	c #818181",
"+	c #838383",
"@	c #858585",
"#	c #868686",
"$	c #878787",
"%	c #898989",
"&	c #8A8B8B",
"*	c #8C8C8D",
"=	c #8D8D8D",
"-	c #8E8F8F",
";	c #909091",
">	c #929292",
",	c #929293",
"'	c #949494",
")	c #959596",
"!	c #979798",
"~	c #999999",
"{	c #9A9A9B",
"]	c #9B9B9D",
"^	c #9D9D9E",
".",
"+",
"@",
"#",
"$",
"%",
"&",
"*",
"=",
"-",
";",
">",
",",
"'",
")",
"!",
"~",
"{",
"]",
"^",
"^",
"^",
"^"};
