/* XPM */
static char * linux_xpm[] = {
"62 21 6 1",
" 	c None",
".	c #E04613",
"+	c #277699",
"@	c #FFFFFF",
"#	c #F38915",
"$	c #6C9EAB",
"                                                              ",
"                                                              ",
"                                                              ",
"                                                              ",
"    .....   +++++                                             ",
"    .....   +++++                                             ",
"    .....   +++++                                             ",
"    .....   +++++                                             ",
"    .....   +++++          @@@   @             @              ",
"                          @   @  @             @              ",
"                          @     @@@@  @@@  @@@@@@@            ",
"                           @@@   @       @ @   @              ",
"    #####   $$$$$             @  @    @@@@ @   @              ",
"    #####   $$$$$         @   @  @   @   @ @   @              ",
"    #####   $$$$$          @@@   @@@  @@ @ @   @@@            ",
"    #####   $$$$$                                             ",
"    #####   $$$$$                                             ",
"                                                              ",
"                                                              ",
"                                                              ",
"                                                              "};
