/* XPM */
static char * desktop_xpm[] = {
"21 20 56 1",
" 	c None",
".	c #979797",
"+	c #C3C3C3",
"@	c #5C5C5C",
"#	c #FFFFFF",
"$	c #1E1E1E",
"%	c #95B7E4",
"&	c #C1C1C1",
"*	c #8AB1E1",
"=	c #8AB0E1",
"-	c #89B0E1",
";	c #89AFE1",
">	c #89AFE0",
",	c #88B0E0",
"'	c #7DA9DD",
")	c #767992",
"!	c #7CA8DD",
"~	c #7BA8DD",
"{	c #7BA7DD",
"]	c #7CA7DC",
"^	c #7BA7DC",
"/	c #70A0D9",
"(	c #F6F6F6",
"_	c #CACACE",
":	c #6FA0D9",
"<	c #6E9FD9",
"[	c #6E9FD8",
"}	c #BAB9BD",
"|	c #6198D5",
"1	c #6197D4",
"2	c #6097D5",
"3	c #6197D5",
"4	c #6097D4",
"5	c #5F96D4",
"6	c #B9B9BD",
"7	c #5490D1",
"8	c #5A5B70",
"9	c #777887",
"0	c #5B5D75",
"a	c #538FD1",
"b	c #538FD0",
"c	c #528FD0",
"d	c #528ED0",
"e	c #4788CD",
"f	c #4787CC",
"g	c #4687CC",
"h	c #4687CD",
"i	c #4586CC",
"j	c #FEFFFD",
"k	c #3A7FC8",
"l	c #397FC8",
"m	c #387FC8",
"n	c #387EC8",
"o	c #377EC8",
"p	c #377EC7",
"q	c #BCBCBE",
"                     ",
"                     ",
"                     ",
"                     ",
"   ...++++++++...    ",
"   @@##########@@    ",
"   $#%%%%%%%%%%#$    ",
"   &#*=*-==;->,#&    ",
"   &#'##)!~{]^^#&    ",
"   &#/#(_:<<[[[#&    ",
"   }#|###123445#}    ",
"   6#7890abbbcd#6    ",
"   6#efghgighii#6    ",
"   .jkllmnnnoop#.    ",
"   @@##########@@    ",
"   $$@qqqqqqqq@$$    ",
"                     ",
"                     ",
"                     ",
"                     "};
