/* XPM */
static char * folder_16x16_xpm[] = {
"16 16 43 1",
" 	c None",
".	c #204A87",
"+	c #B1B8C4",
"@	c #2D548B",
"#	c #A9BFDA",
"$	c #C8D9EC",
"%	c #2F568D",
"&	c #97B0D1",
"*	c #9EBADA",
"=	c #7CA1CD",
"-	c #7BA1CD",
";	c #7896BE",
">	c #224B88",
",	c #28528D",
"'	c #85A4CC",
")	c #5F88BC",
"!	c #5E88BC",
"~	c #5078AF",
"{	c #2E5690",
"]	c #ACC2DC",
"^	c #C7D9EC",
"/	c #C4D6E9",
"(	c #224C88",
"_	c #244D8B",
":	c #2A528C",
"<	c #A7BEDA",
"[	c #ADC8E3",
"}	c #8FB3D9",
"|	c #C4D7EB",
"1	c #BCD1E6",
"2	c #C0D4EA",
"3	c #A9C5E2",
"4	c #BCD2E8",
"5	c #B8CFE7",
"6	c #B5CDE6",
"7	c #B1CAE4",
"8	c #AAC5E2",
"9	c #8AAFD7",
"0	c #A2C0DF",
"a	c #86ACD5",
"b	c #95B5D9",
"c	c #9ABADD",
"d	c #26508D",
"                ",
"  .....         ",
"+@#$$$#%        ",
".&*=-=*;......>,",
".')!!!~{]^^^^^/(",
"_(....:<[}}}}}|.",
"(1222223}}}}}}2.",
".4}}}}}}}}}}}}4.",
".5}}}}}}}}}}}}5.",
".6}}}}}}}}}}}}6.",
".7}}}}}}}}}}}}7.",
".89999999999998.",
".0aaaaaaaaaaaa0.",
">bccccccccccccb(",
"d>............> ",
"                "};
