/* XPM */
static char * closeO_xpm[] = {
"18 42 91 1",
" 	c None",
".	c #6D6D6D",
"+	c #D0D0D0",
"@	c #ECB7B1",
"#	c #E7A89F",
"$	c #E3A39A",
"%	c #E3AAA1",
"&	c #EBC5BF",
"*	c #D88E8B",
"=	c #CF7773",
"-	c #D57068",
";	c #D36E64",
">	c #C96F66",
",	c #CA7C70",
"'	c #E4A296",
")	c #DD8383",
"!	c #CF5E60",
"~	c #E56562",
"{	c #E95F55",
"]	c #EB6154",
"^	c #E7675A",
"/	c #DA6959",
"(	c #D57161",
"_	c #DC8E81",
":	c #EA9598",
"<	c #D76668",
"[	c #E75D5D",
"}	c #FF6563",
"|	c #FF6259",
"1	c #FF5D50",
"2	c #FB6355",
"3	c #F46857",
"4	c #E26551",
"5	c #D16B5C",
"6	c #EDA7A5",
"7	c #D87A7A",
"8	c #E56967",
"9	c #FB6360",
"0	c #A22C23",
"a	c #FF5A4D",
"b	c #F2644E",
"c	c #E76F5F",
"d	c #DF8B89",
"e	c #CB6C66",
"f	c #E96D65",
"g	c #FB6159",
"h	c #F9644E",
"i	c #EB6C5D",
"j	c #D47879",
"k	c #CF786E",
"l	c #E16B5D",
"m	c #F36251",
"n	c #FC5F50",
"o	c #F46151",
"p	c #FB6854",
"q	c #EA685B",
"r	c #DC7D83",
"s	c #CF7D71",
"t	c #D76759",
"u	c #F36A58",
"v	c #EE6754",
"w	c #D86457",
"x	c #E38E93",
"y	c #E1928D",
"z	c #CE6359",
"A	c #ED695D",
"B	c #FD594D",
"C	c #D86755",
"D	c #CD7567",
"E	c #E8ABA8",
"F	c #E18880",
"G	c #D6675C",
"H	c #F46255",
"I	c #FB675B",
"J	c #EE6A5B",
"K	c #D56655",
"L	c #CA7264",
"M	c #E0A094",
"N	c #F5BCB3",
"O	c #D48C7E",
"P	c #D27A6E",
"Q	c #D26B62",
"R	c #D56D64",
"S	c #CF7368",
"T	c #CD7F73",
"U	c #DDA196",
"V	c #E9B9AD",
"W	c #E6A9A4",
"X	c #E2A39E",
"Y	c #E4AAA6",
"Z	c #F0C1B9",
"..................",
"++++++++++++++++++",
"++++++++++++++++++",
"++++++++++++++++++",
"++++++++++++++++++",
"++++++++++++++++++",
"++++++@#$%&+++++++",
"+++++*=-;>,'++++++",
"++++)!~{]^/(_+++++",
"+++:<[}|123456++++",
"+++78900a00bcd++++",
"+++efg00000hij++++",
"+++klmn000opqr++++",
"+++stu00000vwx++++",
"+++yzA00B00CDE++++",
"++++FGqHIJKLM+++++",
"++++NOPQRSTU++++++",
"++++++VWXYZ+++++++",
"++++++++++++++++++",
"++++++++++++++++++",
"++++++++++++++++++",
"..................",
"++++++++++++++++++",
"++++++++++++++++++",
"++++++++++++++++++",
"++++++++++++++++++",
"++++++++++++++++++",
"++++++@#$%&+++++++",
"+++++*=-;>,'++++++",
"++++)!~{]^/(_+++++",
"+++:<[}|123456++++",
"+++78900a00bcd++++",
"+++efg00000hij++++",
"+++klmn000opqr++++",
"+++stu00000vwx++++",
"+++yzA00B00CDE++++",
"++++FGqHIJKLM+++++",
"+++++OPQRSTU++++++",
"++++++VWXYZ+++++++",
"++++++++++++++++++",
"++++++++++++++++++",
"++++++++++++++++++"};
