/* XPM */
static char * frameATL_xpm[] = {
"5 29 6 1",
" 	c None",
".	c #6D6D6D",
"+	c #939494",
"@	c #BBBBBB",
"#	c #D0D0D0",
"$	c #5F5F5F",
"     ",
"     ",
"     ",
"     ",
"     ",
"   ..",
" .+@#",
"$+###",
"$@###",
".####",
".####",
".####",
".####",
".####",
".####",
".####",
".####",
".####",
".####",
".####",
".####",
".####",
".####",
".####",
".####",
".####",
".####",
".####",
".####"};
