/* XPM */
static char * maximizeO_xpm[] = {
"18 42 101 2",
"  	c None",
". 	c #6D6D6D",
"+ 	c #D0D0D0",
"@ 	c #A5E9B6",
"# 	c #8CD79E",
"$ 	c #7AC88E",
"% 	c #8AD59A",
"& 	c #99DFA1",
"* 	c #7ED892",
"= 	c #4CB767",
"- 	c #41B75F",
"; 	c #3BB258",
"> 	c #3BB153",
", 	c #47B556",
"' 	c #6BC772",
") 	c #A2E2A5",
"! 	c #73CB81",
"~ 	c #40BC5A",
"{ 	c #21B442",
"] 	c #1EBE44",
"^ 	c #21C145",
"/ 	c #21BD3E",
"( 	c #27BC3A",
"_ 	c #2FB33C",
": 	c #53B65C",
"< 	c #A4E6A9",
"[ 	c #9EDAA4",
"} 	c #3FAE50",
"| 	c #27BC44",
"1 	c #1BC943",
"2 	c #13CD3E",
"3 	c #1C9333",
"4 	c #36B244",
"5 	c #65BD71",
"6 	c #74C47F",
"7 	c #34B84B",
"8 	c #1EC43E",
"9 	c #12CC3A",
"0 	c #0CCD34",
"a 	c #15D039",
"b 	c #2FBF46",
"c 	c #3DA953",
"d 	c #B2EFC3",
"e 	c #59B467",
"f 	c #2FBC49",
"g 	c #1AC93C",
"h 	c #0DCE35",
"i 	c #17CF39",
"j 	c #16CD33",
"k 	c #26C245",
"l 	c #33AB52",
"m 	c #A2EABC",
"n 	c #58B467",
"o 	c #27B642",
"p 	c #1BC83B",
"q 	c #14C336",
"r 	c #19C938",
"s 	c #19D237",
"t 	c #23C54D",
"u 	c #36B55E",
"v 	c #9FEABF",
"w 	c #6EC17B",
"x 	c #33B54B",
"y 	c #21C240",
"z 	c #1DCD3E",
"A 	c #17CB36",
"B 	c #20CB41",
"C 	c #1EB544",
"D 	c #38AC5B",
"E 	c #B1F5CC",
"F 	c #A3E2AB",
"G 	c #43A955",
"H 	c #2BB344",
"I 	c #1DC939",
"J 	c #2AC042",
"K 	c #3AB24E",
"L 	c #5EB56E",
"M 	c #7FCB8B",
"N 	c #45B259",
"O 	c #28B743",
"P 	c #1BBF3A",
"Q 	c #23D042",
"R 	c #21C93E",
"S 	c #2AC043",
"T 	c #33AE44",
"U 	c #63BE6F",
"V 	c #A5E4AD",
"W 	c #81D08F",
"X 	c #55BE69",
"Y 	c #38B24F",
"Z 	c #2FB24A",
"` 	c #32B04C",
" .	c #48B65D",
"..	c #65BF77",
"+.	c #A0E0AC",
"@.	c #AAEFB8",
"#.	c #8BDD9B",
"$.	c #79D08C",
"%.	c #80D594",
"&.	c #95DEA7",
"*.	c #B8EBC0",
". . . . . . . . . . . . . . . . . . ",
"+ + + + + + + + + + + + + + + + + + ",
"+ + + + + + + + + + + + + + + + + + ",
"+ + + + + + + + + + + + + + + + + + ",
"+ + + + + + + + + + + + + + + + + + ",
"+ + + + + + + + + + + + + + + + + + ",
"+ + + + + + @ # $ % & + + + + + + + ",
"+ + + + + * = - ; > , ' ) + + + + + ",
"+ + + + ! ~ { ] ^ / ( _ : < + + + + ",
"+ + + [ } | 1 2 3 3 3 3 4 5 + + + + ",
"+ + + 6 7 8 9 0 a 3 3 3 b c d + + + ",
"+ + + e f g 3 h i j 3 3 k l m + + + ",
"+ + + n o p 3 3 q r s 3 t u v + + + ",
"+ + + w x y 3 3 3 z A B C D E + + + ",
"+ + + F G H 3 3 3 3 I J K L + + + + ",
"+ + + + M N O P Q R S T U V + + + + ",
"+ + + + + W X Y Z `  ...+.+ + + + + ",
"+ + + + + + @.#.$.%.&.+ + + + + + + ",
"+ + + + + + + + + + + + + + + + + + ",
"+ + + + + + + + + + + + + + + + + + ",
"+ + + + + + + + + + + + + + + + + + ",
". . . . . . . . . . . . . . . . . . ",
"+ + + + + + + + + + + + + + + + + + ",
"+ + + + + + + + + + + + + + + + + + ",
"+ + + + + + + + + + + + + + + + + + ",
"+ + + + + + + + + + + + + + + + + + ",
"+ + + + + + + + + + + + + + + + + + ",
"+ + + + + + @ # $ % & + + + + + + + ",
"+ + + + + * = - ; > , ' ) + + + + + ",
"+ + + + ! ~ { ] ^ / ( _ : < + + + + ",
"+ + + [ } | 1 2 3 3 3 3 4 5 + + + + ",
"+ + + 6 7 8 9 0 a 3 3 3 b c d + + + ",
"+ + + e f g 3 h i j 3 3 k l m + + + ",
"+ + + n o p 3 3 q r s 3 t u v + + + ",
"+ + + w x y 3 3 3 z A B C D E + + + ",
"+ + + F G H 3 3 3 3 I J K L + + + + ",
"+ + + + M N O P Q R S T U V + + + + ",
"+ + + + *.W X Y Z `  ...+.+ + + + + ",
"+ + + + + + @.#.$.%.&.+ + + + + + + ",
"+ + + + + + + + + + + + + + + + + + ",
"+ + + + + + + + + + + + + + + + + + ",
"+ + + + + + + + + + + + + + + + + + "};
