/* XPM */
static char * menusel_xpm[] = {
"1 21 17 1",
" 	c None",
".	c #9BA7C1",
"+	c #99A5C0",
"@	c #95A2BD",
"#	c #929EBA",
"$	c #909DB9",
"%	c #8C99B6",
"&	c #8896B4",
"*	c #8694B3",
"=	c #8493B1",
"-	c #8291B0",
";	c #818FAF",
">	c #7D8CAC",
",	c #7989AA",
"'	c #7887A8",
")	c #7484A6",
"!	c #7282A5",
".",
"+",
"@",
"#",
"$",
"$",
"%",
"&",
"*",
"=",
"-",
";",
">",
",",
",",
"'",
")",
"!",
"!",
"!",
"!"};
