/* XPM */
static char * closeI_xpm[] = {
"18 42 110 2",
"  	c None",
". 	c #6D6D6D",
"+ 	c #E9E9E9",
"@ 	c #ECB7B1",
"# 	c #E7A89F",
"$ 	c #E3A39A",
"% 	c #E3AAA1",
"& 	c #EBC5BF",
"* 	c #D88E8B",
"= 	c #CF7773",
"- 	c #D57068",
"; 	c #D36E64",
"> 	c #C96F66",
", 	c #CA7C70",
"' 	c #E4A296",
") 	c #DD8383",
"! 	c #CF5E60",
"~ 	c #E56562",
"{ 	c #E95F55",
"] 	c #EB6154",
"^ 	c #E7675A",
"/ 	c #DA6959",
"( 	c #D57161",
"_ 	c #DC8E81",
": 	c #EA9598",
"< 	c #D76668",
"[ 	c #E75D5D",
"} 	c #FF6563",
"| 	c #FF6259",
"1 	c #FF5D50",
"2 	c #FB6355",
"3 	c #F46857",
"4 	c #E26551",
"5 	c #D16B5C",
"6 	c #EDA7A5",
"7 	c #D87A7A",
"8 	c #E56967",
"9 	c #FB6360",
"0 	c #FF5B55",
"a 	c #FF594F",
"b 	c #FF5A4D",
"c 	c #FF5F50",
"d 	c #F9604E",
"e 	c #F2644E",
"f 	c #E76F5F",
"g 	c #DF8B89",
"h 	c #CB6C66",
"i 	c #E96D65",
"j 	c #FB6159",
"k 	c #FF5B52",
"l 	c #FF6055",
"m 	c #FF6657",
"n 	c #FE6351",
"o 	c #F9644E",
"p 	c #EB6C5D",
"q 	c #D47879",
"r 	c #CF786E",
"s 	c #E16B5D",
"t 	c #F36251",
"u 	c #FC5F50",
"v 	c #FF6357",
"w 	c #F55D52",
"x 	c #F55F51",
"y 	c #F46151",
"z 	c #FB6854",
"A 	c #EA685B",
"B 	c #DC7D83",
"C 	c #CF7D71",
"D 	c #D76759",
"E 	c #F36A58",
"F 	c #FA6352",
"G 	c #FA6054",
"H 	c #F86055",
"I 	c #F86659",
"J 	c #F06352",
"K 	c #EE6754",
"L 	c #D86457",
"M 	c #E38E93",
"N 	c #E1928D",
"O 	c #CE6359",
"P 	c #ED695D",
"Q 	c #FA6255",
"R 	c #FD594D",
"S 	c #F66051",
"T 	c #EF6A59",
"U 	c #D86755",
"V 	c #CD7567",
"W 	c #E8ABA8",
"X 	c #E18880",
"Y 	c #D6675C",
"Z 	c #F46255",
"` 	c #FB675B",
" .	c #EE6A5B",
"..	c #D56655",
"+.	c #CA7264",
"@.	c #E0A094",
"#.	c #F5BCB3",
"$.	c #D48C7E",
"%.	c #D27A6E",
"&.	c #D26B62",
"*.	c #D56D64",
"=.	c #CF7368",
"-.	c #CD7F73",
";.	c #DDA196",
">.	c #E9B9AD",
",.	c #E6A9A4",
"'.	c #E2A39E",
").	c #E4AAA6",
"!.	c #F0C1B9",
"~.	c #A22C23",
". . . . . . . . . . . . . . . . . . ",
"+ + + + + + + + + + + + + + + + + + ",
"+ + + + + + + + + + + + + + + + + + ",
"+ + + + + + + + + + + + + + + + + + ",
"+ + + + + + + + + + + + + + + + + + ",
"+ + + + + + + + + + + + + + + + + + ",
"+ + + + + + @ # $ % & + + + + + + + ",
"+ + + + + * = - ; > , ' + + + + + + ",
"+ + + + ) ! ~ { ] ^ / ( _ + + + + + ",
"+ + + : < [ } | 1 2 3 4 5 6 + + + + ",
"+ + + 7 8 9 0 a b c d e f g + + + + ",
"+ + + h i j k a l m n o p q + + + + ",
"+ + + r s t u v w x y z A B + + + + ",
"+ + + C D E F G H I J K L M + + + + ",
"+ + + N O P Q v R S T U V W + + + + ",
"+ + + + X Y A Z `  ...+.@.+ + + + + ",
"+ + + + #.$.%.&.*.=.-.;.+ + + + + + ",
"+ + + + + + >.,.'.).!.+ + + + + + + ",
"+ + + + + + + + + + + + + + + + + + ",
"+ + + + + + + + + + + + + + + + + + ",
"+ + + + + + + + + + + + + + + + + + ",
". . . . . . . . . . . . . . . . . . ",
"+ + + + + + + + + + + + + + + + + + ",
"+ + + + + + + + + + + + + + + + + + ",
"+ + + + + + + + + + + + + + + + + + ",
"+ + + + + + + + + + + + + + + + + + ",
"+ + + + + + + + + + + + + + + + + + ",
"+ + + + + + @ # $ % & + + + + + + + ",
"+ + + + + * = - ; > , ' + + + + + + ",
"+ + + + ) ! ~ { ] ^ / ( _ + + + + + ",
"+ + + : < [ } | 1 2 3 4 5 6 + + + + ",
"+ + + 7 8 9 ~.~.b ~.~.e f g + + + + ",
"+ + + h i j ~.~.~.~.~.o p q + + + + ",
"+ + + r s t u ~.~.~.y z A B + + + + ",
"+ + + C D E ~.~.~.~.~.K L M + + + + ",
"+ + + N O P ~.~.R ~.~.U V W + + + + ",
"+ + + + X Y A Z `  ...+.@.+ + + + + ",
"+ + + + #.$.%.&.*.=.-.;.+ + + + + + ",
"+ + + + + + >.,.'.).!.+ + + + + + + ",
"+ + + + + + + + + + + + + + + + + + ",
"+ + + + + + + + + + + + + + + + + + ",
"+ + + + + + + + + + + + + + + + + + "};
