/* XPM */
static char * maximizeA_xpm[] = {
"18 42 121 2",
"  	c None",
". 	c #6D6D6D",
"+ 	c #E9E9E9",
"@ 	c #A5E9B6",
"# 	c #8CD79E",
"$ 	c #7AC88E",
"% 	c #8AD59A",
"& 	c #99DFA1",
"* 	c #7ED892",
"= 	c #4CB767",
"- 	c #41B75F",
"; 	c #3BB258",
"> 	c #3BB153",
", 	c #47B556",
"' 	c #6BC772",
") 	c #A2E2A5",
"! 	c #73CB81",
"~ 	c #40BC5A",
"{ 	c #21B442",
"] 	c #1EBE44",
"^ 	c #21C145",
"/ 	c #21BD3E",
"( 	c #27BC3A",
"_ 	c #2FB33C",
": 	c #53B65C",
"< 	c #A4E6A9",
"[ 	c #9EDAA4",
"} 	c #3FAE50",
"| 	c #27BC44",
"1 	c #1BC943",
"2 	c #13CD3E",
"3 	c #1AD03F",
"4 	c #1ACC38",
"5 	c #1FCE35",
"6 	c #2BC83B",
"7 	c #36B244",
"8 	c #65BD71",
"9 	c #74C47F",
"0 	c #34B84B",
"a 	c #1EC43E",
"b 	c #12CC3A",
"c 	c #0CCD34",
"d 	c #15D039",
"e 	c #11C82E",
"f 	c #10C926",
"g 	c #22CC36",
"h 	c #2FBF46",
"i 	c #3DA953",
"j 	c #B2EFC3",
"k 	c #59B467",
"l 	c #2FBC49",
"m 	c #1AC93C",
"n 	c #12D03A",
"o 	c #0DCE35",
"p 	c #17CF39",
"q 	c #16CD33",
"r 	c #16D02F",
"s 	c #11C42B",
"t 	c #26C245",
"u 	c #33AB52",
"v 	c #A2EABC",
"w 	c #58B467",
"x 	c #27B642",
"y 	c #1BC83B",
"z 	c #14CE3D",
"A 	c #0FC937",
"B 	c #14C336",
"C 	c #19C938",
"D 	c #19D237",
"E 	c #15C936",
"F 	c #23C54D",
"G 	c #36B55E",
"H 	c #9FEABF",
"I 	c #6EC17B",
"J 	c #33B54B",
"K 	c #21C240",
"L 	c #17C83C",
"M 	c #15CD3B",
"N 	c #15C638",
"O 	c #1DCD3E",
"P 	c #17CB36",
"Q 	c #20CB41",
"R 	c #1EB544",
"S 	c #38AC5B",
"T 	c #B1F5CC",
"U 	c #A3E2AB",
"V 	c #43A955",
"W 	c #2BB344",
"X 	c #27CD47",
"Y 	c #0EC630",
"Z 	c #11CE34",
"` 	c #12CB32",
" .	c #1DC939",
"..	c #2AC042",
"+.	c #3AB24E",
"@.	c #5EB56E",
"#.	c #7FCB8B",
"$.	c #45B259",
"%.	c #28B743",
"&.	c #1BBF3A",
"*.	c #23D042",
"=.	c #21C93E",
"-.	c #2AC043",
";.	c #33AE44",
">.	c #63BE6F",
",.	c #A5E4AD",
"'.	c #81D08F",
").	c #55BE69",
"!.	c #38B24F",
"~.	c #2FB24A",
"{.	c #32B04C",
"].	c #48B65D",
"^.	c #65BF77",
"/.	c #A0E0AC",
"(.	c #AAEFB8",
"_.	c #8BDD9B",
":.	c #79D08C",
"<.	c #80D594",
"[.	c #95DEA7",
"}.	c #1C9333",
"|.	c #B8EBC0",
". . . . . . . . . . . . . . . . . . ",
"+ + + + + + + + + + + + + + + + + + ",
"+ + + + + + + + + + + + + + + + + + ",
"+ + + + + + + + + + + + + + + + + + ",
"+ + + + + + + + + + + + + + + + + + ",
"+ + + + + + + + + + + + + + + + + + ",
"+ + + + + + @ # $ % & + + + + + + + ",
"+ + + + + * = - ; > , ' ) + + + + + ",
"+ + + + ! ~ { ] ^ / ( _ : < + + + + ",
"+ + + [ } | 1 2 3 4 5 6 7 8 + + + + ",
"+ + + 9 0 a b c d e f g h i j + + + ",
"+ + + k l m n o p q r s t u v + + + ",
"+ + + w x y z A B C D E F G H + + + ",
"+ + + I J K L M N O P Q R S T + + + ",
"+ + + U V W X Y Z `  ...+.@.+ + + + ",
"+ + + + #.$.%.&.*.=.-.;.>.,.+ + + + ",
"+ + + + + '.).!.~.{.].^./.+ + + + + ",
"+ + + + + + (._.:.<.[.+ + + + + + + ",
"+ + + + + + + + + + + + + + + + + + ",
"+ + + + + + + + + + + + + + + + + + ",
"+ + + + + + + + + + + + + + + + + + ",
". . . . . . . . . . . . . . . . . . ",
"+ + + + + + + + + + + + + + + + + + ",
"+ + + + + + + + + + + + + + + + + + ",
"+ + + + + + + + + + + + + + + + + + ",
"+ + + + + + + + + + + + + + + + + + ",
"+ + + + + + + + + + + + + + + + + + ",
"+ + + + + + @ # $ % & + + + + + + + ",
"+ + + + + * = - ; > , ' ) + + + + + ",
"+ + + + ! ~ { ] ^ / ( _ : < + + + + ",
"+ + + [ } | 1 2 }.}.}.}.7 8 + + + + ",
"+ + + 9 0 a b c d }.}.}.h i j + + + ",
"+ + + k l m }.o p q }.}.t u v + + + ",
"+ + + w x y }.}.B C D }.F G H + + + ",
"+ + + I J K }.}.}.O P Q R S T + + + ",
"+ + + U V W }.}.}.}. ...+.@.+ + + + ",
"+ + + + #.$.%.&.*.=.-.;.>.,.+ + + + ",
"+ + + + |.'.).!.~.{.].^./.+ + + + + ",
"+ + + + + + (._.:.<.[.+ + + + + + + ",
"+ + + + + + + + + + + + + + + + + + ",
"+ + + + + + + + + + + + + + + + + + ",
"+ + + + + + + + + + + + + + + + + + "};
