/* XPM */
static char * minimizeO_xpm[] = {
"18 42 101 2",
"  	c None",
". 	c #6D6D6D",
"+ 	c #E9E9E9",
"@ 	c #ECD18E",
"# 	c #E8CB7F",
"$ 	c #EACB7B",
"% 	c #EAD385",
"& 	c #EAD086",
"* 	c #E1C061",
"= 	c #DFB94A",
"- 	c #E9BF49",
"; 	c #E9BF46",
"> 	c #DFBA47",
", 	c #DCC35E",
"' 	c #E4D383",
") 	c #F3D98F",
"! 	c #E1BC4A",
"~ 	c #E9BC2D",
"{ 	c #EEBC1F",
"] 	c #F2BD19",
"^ 	c #EDBD1F",
"/ 	c #E6BD31",
"( 	c #DDBD4C",
"_ 	c #EAD387",
": 	c #E8B92D",
"< 	c #F7C117",
"[ 	c #FDC20C",
"} 	c #F9BE00",
"| 	c #FABD00",
"1 	c #FDC20E",
"2 	c #F5C21B",
"3 	c #E5BA30",
"4 	c #E0BE5D",
"5 	c #E8D08A",
"6 	c #DFB748",
"7 	c #F2BF28",
"8 	c #F8BC0C",
"9 	c #FABD02",
"0 	c #FFC000",
"a 	c #FFBF00",
"b 	c #FDBC00",
"c 	c #F8BD0B",
"d 	c #F2BF25",
"e 	c #E0B745",
"f 	c #ECCB84",
"g 	c #E5C878",
"h 	c #E6BA41",
"i 	c #F5BE23",
"j 	c #B3922C",
"k 	c #F6BF1C",
"l 	c #E5B93C",
"m 	c #E6C574",
"n 	c #EDCA76",
"o 	c #EABA3C",
"p 	c #F0BA1C",
"q 	c #F1BA15",
"r 	c #E6BB39",
"s 	c #E6C870",
"t 	c #F0D387",
"u 	c #E2B744",
"v 	c #F5BF27",
"w 	c #F6BC10",
"x 	c #F6BD0B",
"y 	c #FCC10B",
"z 	c #FDC00D",
"A 	c #F9BC0B",
"B 	c #F6BD0E",
"C 	c #F3C124",
"D 	c #E1B940",
"E 	c #E6CB7A",
"F 	c #DABC64",
"G 	c #EAB92E",
"H 	c #F9BC14",
"I 	c #FBBD10",
"J 	c #FABD0A",
"K 	c #F9BF13",
"L 	c #F4C01F",
"M 	c #E8BC35",
"N 	c #DEBC5A",
"O 	c #E7D394",
"P 	c #E4B949",
"Q 	c #EFB82A",
"R 	c #F2BB23",
"S 	c #F6C022",
"T 	c #F5C120",
"U 	c #EEBD23",
"V 	c #E6BA33",
"W 	c #DFBB4D",
"X 	c #EDD187",
"Y 	c #EFCE87",
"Z 	c #E8C162",
"` 	c #E1B94A",
" .	c #E1BA41",
"..	c #E1BB3E",
"+.	c #DDBA44",
"@.	c #E2C25F",
"#.	c #E8CE81",
"$.	c #EAD28C",
"%.	c #E8CF7F",
"&.	c #E7CE7A",
"*.	c #E8D181",
". . . . . . . . . . . . . . . . . . ",
"+ + + + + + + + + + + + + + + + + + ",
"+ + + + + + + + + + + + + + + + + + ",
"+ + + + + + + + + + + + + + + + + + ",
"+ + + + + + + + + + + + + + + + + + ",
"+ + + + + + + + + + + + + + + + + + ",
"+ + + + + + + @ # $ % + + + + + + + ",
"+ + + + + & * = - ; > , ' + + + + + ",
"+ + + + ) ! ~ { ] ] ^ / ( _ + + + + ",
"+ + + + * : < [ } | 1 2 3 4 + + + + ",
"+ + + 5 6 7 8 9 0 a b c d e f + + + ",
"+ + + g h i j j j j j j k l m + + + ",
"+ + + n o p j j j j j j q r s + + + ",
"+ + + t u v w x y z A B C D E + + + ",
"+ + + + F G H I A J K L M N + + + + ",
"+ + + + O P Q R S T U V W X + + + + ",
"+ + + + + Y Z `  ...+.@.#.+ + + + + ",
"+ + + + + + + $.%.&.*.+ + + + + + + ",
"+ + + + + + + + + + + + + + + + + + ",
"+ + + + + + + + + + + + + + + + + + ",
"+ + + + + + + + + + + + + + + + + + ",
". . . . . . . . . . . . . . . . . . ",
"+ + + + + + + + + + + + + + + + + + ",
"+ + + + + + + + + + + + + + + + + + ",
"+ + + + + + + + + + + + + + + + + + ",
"+ + + + + + + + + + + + + + + + + + ",
"+ + + + + + + + + + + + + + + + + + ",
"+ + + + + + + @ # $ % + + + + + + + ",
"+ + + + + & * = - ; > , ' + + + + + ",
"+ + + + ) ! ~ { ] ] ^ / ( _ + + + + ",
"+ + + + * : < [ } | 1 2 3 4 + + + + ",
"+ + + 5 6 7 8 9 0 a b c d e f + + + ",
"+ + + g h i j j j j j j k l m + + + ",
"+ + + n o p j j j j j j q r s + + + ",
"+ + + t u v w x y z A B C D E + + + ",
"+ + + + F G H I A J K L M N + + + + ",
"+ + + + O P Q R S T U V W X + + + + ",
"+ + + + + Y Z `  ...+.@.#.+ + + + + ",
"+ + + + + + + $.%.&.*.+ + + + + + + ",
"+ + + + + + + + + + + + + + + + + + ",
"+ + + + + + + + + + + + + + + + + + ",
"+ + + + + + + + + + + + + + + + + + "};
