/* XPM */
static char * minimizeI_xpm[] = {
"18 42 113 2",
"  	c None",
". 	c #6D6D6D",
"+ 	c #E9E9E9",
"@ 	c #ECD18E",
"# 	c #E8CB7F",
"$ 	c #EACB7B",
"% 	c #EAD385",
"& 	c #EAD086",
"* 	c #E1C061",
"= 	c #DFB94A",
"- 	c #E9BF49",
"; 	c #E9BF46",
"> 	c #DFBA47",
", 	c #DCC35E",
"' 	c #E4D383",
") 	c #F3D98F",
"! 	c #E1BC4A",
"~ 	c #E9BC2D",
"{ 	c #EEBC1F",
"] 	c #F2BD19",
"^ 	c #EDBD1F",
"/ 	c #E6BD31",
"( 	c #DDBD4C",
"_ 	c #EAD387",
": 	c #E8B92D",
"< 	c #F7C117",
"[ 	c #FDC20C",
"} 	c #F9BE00",
"| 	c #FABD00",
"1 	c #FDC20E",
"2 	c #F5C21B",
"3 	c #E5BA30",
"4 	c #E0BE5D",
"5 	c #E8D08A",
"6 	c #DFB748",
"7 	c #F2BF28",
"8 	c #F8BC0C",
"9 	c #FABD02",
"0 	c #FFC000",
"a 	c #FFBF00",
"b 	c #FDBC00",
"c 	c #F8BD0B",
"d 	c #F2BF25",
"e 	c #E0B745",
"f 	c #ECCB84",
"g 	c #E5C878",
"h 	c #E6BA41",
"i 	c #F5BE23",
"j 	c #FCBF0E",
"k 	c #FDC003",
"l 	c #FEBF00",
"m 	c #FFBE00",
"n 	c #FFBE03",
"o 	c #FDC006",
"p 	c #F6BF1C",
"q 	c #E5B93C",
"r 	c #E6C574",
"s 	c #EDCA76",
"t 	c #EABA3C",
"u 	c #F0BA1C",
"v 	c #FAC110",
"w 	c #FAC209",
"x 	c #F6BC01",
"y 	c #F8BB01",
"z 	c #FFC009",
"A 	c #FEC009",
"B 	c #F1BA15",
"C 	c #E6BB39",
"D 	c #E6C870",
"E 	c #F0D387",
"F 	c #E2B744",
"G 	c #F5BF27",
"H 	c #F6BC10",
"I 	c #F6BD0B",
"J 	c #FCC10B",
"K 	c #FDC00D",
"L 	c #F9BC0B",
"M 	c #F6BD0E",
"N 	c #F3C124",
"O 	c #E1B940",
"P 	c #E6CB7A",
"Q 	c #DABC64",
"R 	c #EAB92E",
"S 	c #F9BC14",
"T 	c #FBBD10",
"U 	c #FABD0A",
"V 	c #F9BF13",
"W 	c #F4C01F",
"X 	c #E8BC35",
"Y 	c #DEBC5A",
"Z 	c #E7D394",
"` 	c #E4B949",
" .	c #EFB82A",
"..	c #F2BB23",
"+.	c #F6C022",
"@.	c #F5C120",
"#.	c #EEBD23",
"$.	c #E6BA33",
"%.	c #DFBB4D",
"&.	c #EDD187",
"*.	c #EFCE87",
"=.	c #E8C162",
"-.	c #E1B94A",
";.	c #E1BA41",
">.	c #E1BB3E",
",.	c #DDBA44",
"'.	c #E2C25F",
").	c #E8CE81",
"!.	c #EAD28C",
"~.	c #E8CF7F",
"{.	c #E7CE7A",
"].	c #E8D181",
"^.	c #B3922C",
". . . . . . . . . . . . . . . . . . ",
"+ + + + + + + + + + + + + + + + + + ",
"+ + + + + + + + + + + + + + + + + + ",
"+ + + + + + + + + + + + + + + + + + ",
"+ + + + + + + + + + + + + + + + + + ",
"+ + + + + + + + + + + + + + + + + + ",
"+ + + + + + + @ # $ % + + + + + + + ",
"+ + + + + & * = - ; > , ' + + + + + ",
"+ + + + ) ! ~ { ] ] ^ / ( _ + + + + ",
"+ + + + * : < [ } | 1 2 3 4 + + + + ",
"+ + + 5 6 7 8 9 0 a b c d e f + + + ",
"+ + + g h i j k l m n o p q r + + + ",
"+ + + s t u v w x y z A B C D + + + ",
"+ + + E F G H I J K L M N O P + + + ",
"+ + + + Q R S T L U V W X Y + + + + ",
"+ + + + Z `  ...+.@.#.$.%.&.+ + + + ",
"+ + + + + *.=.-.;.>.,.'.).+ + + + + ",
"+ + + + + + + !.~.{.].+ + + + + + + ",
"+ + + + + + + + + + + + + + + + + + ",
"+ + + + + + + + + + + + + + + + + + ",
"+ + + + + + + + + + + + + + + + + + ",
". . . . . . . . . . . . . . . . . . ",
"+ + + + + + + + + + + + + + + + + + ",
"+ + + + + + + + + + + + + + + + + + ",
"+ + + + + + + + + + + + + + + + + + ",
"+ + + + + + + + + + + + + + + + + + ",
"+ + + + + + + + + + + + + + + + + + ",
"+ + + + + + + @ # $ % + + + + + + + ",
"+ + + + + & * = - ; > , ' + + + + + ",
"+ + + + ) ! ~ { ] ] ^ / ( _ + + + + ",
"+ + + + * : < [ } | 1 2 3 4 + + + + ",
"+ + + 5 6 7 8 9 0 a b c d e f + + + ",
"+ + + g h i ^.^.^.^.^.^.p q r + + + ",
"+ + + s t u ^.^.^.^.^.^.B C D + + + ",
"+ + + E F G H I J K L M N O P + + + ",
"+ + + + Q R S T L U V W X Y + + + + ",
"+ + + + Z `  ...+.@.#.$.%.&.+ + + + ",
"+ + + + + *.=.-.;.>.,.'.).+ + + + + ",
"+ + + + + + + !.~.{.].+ + + + + + + ",
"+ + + + + + + + + + + + + + + + + + ",
"+ + + + + + + + + + + + + + + + + + ",
"+ + + + + + + + + + + + + + + + + + "};
