/* XPM */
static char * titleAB_xpm[] = {
"1 21 3 1",
" 	c None",
".	c #6D6D6D",
"+	c #E9E9E9",
".",
"+",
"+",
"+",
"+",
"+",
"+",
"+",
"+",
"+",
"+",
"+",
"+",
"+",
"+",
"+",
"+",
"+",
"+",
"+",
"+"};
