/* XPM */
static char * restoreO_xpm[] = {
"19 32 4 1",
" 	c None",
".	c #3F51B5",
"+	c #FFFFFF",
"@	c #645D5A",
"...................",
"...................",
"...................",
"...................",
"..........++.......",
"..........++.......",
"..........++++.....",
"..........++++.....",
"...................",
".....++++..........",
".....++++..........",
".......++..........",
".......++..........",
"...................",
"...................",
"...................",
"...................",
"...................",
"...................",
"...................",
"..........@........",
"..........@........",
"..........@........",
"..........@@@@.....",
"...................",
".....@@@@..........",
"........@..........",
"........@..........",
"........@..........",
"...................",
"...................",
"..................."};
