/* XPM */
static char * icewm_xpm[] = {
"106 20 583 2",
"  	c None",
". 	c #E1E1E1",
"+ 	c #E1E0E0",
"@ 	c #E0E1E0",
"# 	c #E0E0E0",
"$ 	c #E1E0E1",
"% 	c #E1E1E0",
"& 	c #E0E1E1",
"* 	c #DEDEDE",
"= 	c #DEDFDE",
"- 	c #DFDEDE",
"; 	c #DEDEDF",
"> 	c #DFDFDE",
", 	c #729AD5",
"' 	c #6293CE",
") 	c #DFDFDF",
"! 	c #DFDEDF",
"~ 	c #DEDFDF",
"{ 	c #E0DFDF",
"] 	c #DFE0DF",
"^ 	c #DFDFE0",
"/ 	c #E0DFE0",
"( 	c #E0E0DF",
"_ 	c #DFE0E0",
": 	c #DCDCDC",
"< 	c #DCDBDC",
"[ 	c #DCDCDB",
"} 	c #709AD4",
"| 	c #6292D0",
"1 	c #8FB0DD",
"2 	c #DDDCDC",
"3 	c #DCDDDC",
"4 	c #DDDDDC",
"5 	c #DDDDDD",
"6 	c #DDDCDD",
"7 	c #DCDCDD",
"8 	c #DCDDDD",
"9 	c #DEDDDD",
"0 	c #DDDEDD",
"a 	c #DDDEDE",
"b 	c #DEDEDD",
"c 	c #DDDDDE",
"d 	c #D9DAD9",
"e 	c #DAD9DA",
"f 	c #DAD9D9",
"g 	c #DADADA",
"h 	c #DADAD9",
"i 	c #D9DADA",
"j 	c #B7CDE5",
"k 	c #6596D1",
"l 	c #79A2D6",
"m 	c #D9D9D9",
"n 	c #DBDADA",
"o 	c #DADBDA",
"p 	c #DBDADB",
"q 	c #DBDBDA",
"r 	c #DADADB",
"s 	c #DBDBDB",
"t 	c #DADBDB",
"u 	c #DCDBDB",
"v 	c #D8D7D6",
"w 	c #D7D7D7",
"x 	c #D7D8D6",
"y 	c #D8D7D7",
"z 	c #B3C8E5",
"A 	c #97B4DC",
"B 	c #D8D8D7",
"C 	c #D8D8D8",
"D 	c #D8D7D8",
"E 	c #D7D7D8",
"F 	c #D7D8D8",
"G 	c #D7D8D7",
"H 	c #D9D8D8",
"I 	c #D8D9D8",
"J 	c #D9D9D8",
"K 	c #D8D8D9",
"L 	c #D9D8D9",
"M 	c #D8D9D9",
"N 	c #D5D5D5",
"O 	c #D5D5D4",
"P 	c #B6CEE8",
"Q 	c #90B9E5",
"R 	c #9EC1E7",
"S 	c #D4D5D4",
"T 	c #CDD7DF",
"U 	c #95B7E4",
"V 	c #92B8E7",
"W 	c #BBD0EF",
"X 	c #D6D5D5",
"Y 	c #D5D6D5",
"Z 	c #D6D6D5",
"` 	c #B6B6B5",
" .	c #2C2C2C",
"..	c #D3D2D2",
"+.	c #B6B5B5",
"@.	c #D6D5D6",
"#.	c #D6D6D6",
"$.	c #D5D6D6",
"%.	c #B6B6B6",
"&.	c #D3D3D3",
"*.	c #D6D7D6",
"=.	c #D7D6D6",
"-.	c #D7D7D6",
";.	c #D3D3D2",
">.	c #D2D2D2",
",.	c #D2D3D2",
"'.	c #63A4DE",
").	c #4D9DDA",
"!.	c #58A7E0",
"~.	c #54A2E0",
"{.	c #4499D9",
"].	c #70A8E1",
"^.	c #60A0DD",
"/.	c #4596D7",
"(.	c #54A3DE",
"_.	c #4FA1DB",
":.	c #4398D9",
"<.	c #699CDE",
"[.	c #D2D3D3",
"}.	c #757675",
"|.	c #A7A7A7",
"1.	c #B3B3B3",
"2.	c #D0D0D0",
"3.	c #D4D4D3",
"4.	c #D4D3D3",
"5.	c #D3D4D3",
"6.	c #B3B4B3",
"7.	c #D1D1D0",
"8.	c #D4D4D4",
"9.	c #D4D3D4",
"0.	c #D0D0CF",
"a.	c #64A1E0",
"b.	c #5FABDD",
"c.	c #6CB6E3",
"d.	c #66B5E0",
"e.	c #69B3E0",
"f.	c #67B4E2",
"g.	c #62AEE0",
"h.	c #5DAFE1",
"i.	c #5FB0DD",
"j.	c #57A8DF",
"k.	c #51A8DD",
"l.	c #50A7DD",
"m.	c #3985D9",
"n.	c #D0D1D0",
"o.	c #D1D0CF",
"p.	c #D1D0D0",
"q.	c #D1D1CF",
"r.	c #CBCCCB",
"s.	c #383838",
"t.	c #4A4A4A",
"u.	c #656564",
"v.	c #D1D0D1",
"w.	c #B1B1B1",
"x.	c #CECDCD",
"y.	c #CFCFCE",
"z.	c #C9C8C9",
"A.	c #D1D1D1",
"B.	c #CECECE",
"C.	c #D1D2D1",
"D.	c #CFCFCF",
"E.	c #CAC9C9",
"F.	c #D1D2D0",
"G.	c #D2D1D1",
"H.	c #D2D2D1",
"I.	c #D2D1D0",
"J.	c #D1D2D2",
"K.	c #CDCECD",
"L.	c #AEC9E6",
"M.	c #4C9EDA",
"N.	c #6BB5E2",
"O.	c #64B1DF",
"P.	c #64AEDF",
"Q.	c #61AFE0",
"R.	c #5BABE0",
"S.	c #59ACE2",
"T.	c #56A9DF",
"U.	c #4FA4DB",
"V.	c #4AA0DB",
"W.	c #4AA0DD",
"X.	c #3187D4",
"Y.	c #B5C1EB",
"Z.	c #CDCECE",
"`.	c #CECECD",
" +	c #969695",
".+	c #393939",
"++	c #A9A9A9",
"@+	c #303030",
"#+	c #C1C1C1",
"$+	c #AFAFAF",
"%+	c #919191",
"&+	c #3F3F3F",
"*+	c #333333",
"=+	c #6A6A6A",
"-+	c #6A6A69",
";+	c #C9C9C9",
">+	c #AFB0AF",
",+	c #CBCBCB",
"'+	c #CCCBCB",
")+	c #CACBCA",
"!+	c #7C7C7C",
"~+	c #414140",
"{+	c #333332",
"]+	c #717070",
"^+	c #CFCECE",
"/+	c #8D8E8D",
"(+	c #464646",
"_+	c #363636",
":+	c #616161",
"<+	c #C1C1C0",
"[+	c #C9CAC9",
"}+	c #313131",
"|+	c #949494",
"1+	c #CCCCCB",
"2+	c #C0C0C0",
"3+	c #606060",
"4+	c #343434",
"5+	c #717170",
"6+	c #CBCACB",
"7+	c #9A9A9A",
"8+	c #444444",
"9+	c #4D4D4D",
"0+	c #B4B4B3",
"a+	c #898888",
"b+	c #3D3D3D",
"c+	c #323232",
"d+	c #3C3C3C",
"e+	c #858685",
"f+	c #6FA6DE",
"g+	c #66B4E4",
"h+	c #5FACE0",
"i+	c #53A8DE",
"j+	c #53A8DF",
"k+	c #4EA4DD",
"l+	c #4BA1DA",
"m+	c #499DD9",
"n+	c #489CDA",
"o+	c #479ADC",
"p+	c #4396DC",
"q+	c #5C8BDD",
"r+	c #CBCCCA",
"s+	c #555555",
"t+	c #706F6F",
"u+	c #424242",
"v+	c #858585",
"w+	c #ADADAD",
"x+	c #636362",
"y+	c #C5C4C5",
"z+	c #BEBEBD",
"A+	c #777777",
"B+	c #636262",
"C+	c #C5C5C5",
"D+	c #BEBEBE",
"E+	c #C9C9C8",
"F+	c #CCCCCC",
"G+	c #4C4C4B",
"H+	c #B2B2B2",
"I+	c #C3C3C3",
"J+	c #A5A5A5",
"K+	c #9C9C9C",
"L+	c #B5B4B4",
"M+	c #CDCCCB",
"N+	c #585757",
"O+	c #5F5F5F",
"P+	c #CDCCCC",
"Q+	c #ADAEAD",
"R+	c #C9CAC8",
"S+	c #595959",
"T+	c #5F5E5E",
"U+	c #C5C6C5",
"V+	c #BEBDBD",
"W+	c #CCCDCC",
"X+	c #AEAEAD",
"Y+	c #666666",
"Z+	c #C2C2C1",
"`+	c #C7C8C6",
" @	c #666766",
".@	c #515151",
"+@	c #CCCDCD",
"@@	c #BBBBBA",
"#@	c #A3A3A3",
"$@	c #CDCDCC",
"%@	c #AFAFAE",
"&@	c #5998DF",
"*@	c #64B0E2",
"=@	c #5EAFDE",
"-@	c #51A6DC",
";@	c #4DA3DC",
">@	c #499FDC",
",@	c #479CDC",
"'@	c #4398D8",
")@	c #3F94D7",
"!@	c #3C90D8",
"~@	c #3689D5",
"{@	c #7E99DE",
"]@	c #CAC9C8",
"^@	c #B3B3B2",
"/@	c #A6A6A5",
"(@	c #797A79",
"_@	c #454545",
":@	c #ABABAA",
"<@	c #969595",
"[@	c #ABABAB",
"}@	c #B2B3B1",
"|@	c #CACAC9",
"1@	c #959595",
"2@	c #C7C6C6",
"3@	c #ACACAB",
"4@	c #BFBFBF",
"5@	c #2D2D2D",
"6@	c #AAABAA",
"7@	c #A4A4A3",
"8@	c #C7C7C6",
"9@	c #BDBDBC",
"0@	c #CACACA",
"a@	c #B9B9B8",
"b@	c #A6A6A6",
"c@	c #BCBDBC",
"d@	c #2F2F2F",
"e@	c #8A8A8A",
"f@	c #CACBC9",
"g@	c #CBCBCA",
"h@	c #C7C6C5",
"i@	c #62AEE2",
"j@	c #58A7DF",
"k@	c #4DA1DD",
"l@	c #499DDD",
"m@	c #4699DB",
"n@	c #4497DB",
"o@	c #4092DB",
"p@	c #3E90DA",
"q@	c #3B8EDA",
"r@	c #388BDB",
"s@	c #2D82D3",
"t@	c #6D8BD3",
"u@	c #C7C7C5",
"v@	c #C6C7C6",
"w@	c #747474",
"x@	c #414141",
"y@	c #C2C1C1",
"z@	c #A7A7A6",
"A@	c #2E2E2E",
"B@	c #C7C7C7",
"C@	c #AAA9A9",
"D@	c #C4C4C3",
"E@	c #C5C4C3",
"F@	c #ACACAC",
"G@	c #C2C3C2",
"H@	c #C8C7C7",
"I@	c #C8C7C6",
"J@	c #4E4E4E",
"K@	c #A9AAA9",
"L@	c #C5C4C4",
"M@	c #C8C8C7",
"N@	c #AAAAA9",
"O@	c #C4C5C4",
"P@	c #ADACAC",
"Q@	c #C3C3C2",
"R@	c #A8A7A7",
"S@	c #545454",
"T@	c #A2A2A1",
"U@	c #C8C8C8",
"V@	c #5E97DC",
"W@	c #5BA8DC",
"X@	c #4FA3DF",
"Y@	c #459BD8",
"Z@	c #4497D9",
"`@	c #4093D9",
" #	c #3D8FD9",
".#	c #398BD7",
"+#	c #3687D6",
"@#	c #3485D6",
"##	c #3183D5",
"$#	c #2C68CA",
"%#	c #C4C4C4",
"&#	c #C5C5C3",
"*#	c #C5C5C4",
"=#	c #3A3A3A",
"-#	c #656565",
";#	c #A7A8A6",
">#	c #939393",
",#	c #A8A8A7",
"'#	c #AEADAD",
")#	c #C2C2C0",
"!#	c #B7B7B7",
"~#	c #929292",
"{#	c #C0C0BF",
"]#	c #A09F9F",
"^#	c #A8A8A8",
"/#	c #C2C2C2",
"(#	c #C6C5C4",
"_#	c #C2C3C1",
":#	c #B9B9B9",
"<#	c #AFAFAD",
"[#	c #C6C6C4",
"}#	c #7A7B7A",
"|#	c #C6C5C5",
"1#	c #8CAFE5",
"2#	c #509EDE",
"3#	c #4C9ADA",
"4#	c #4695DA",
"5#	c #3B8FD5",
"6#	c #378BD3",
"7#	c #3588D4",
"8#	c #3386D6",
"9#	c #2C81D2",
"0#	c #3082D4",
"a#	c #3487D7",
"b#	c #2273CF",
"c#	c #7B98D4",
"d#	c #C1C2C1",
"e#	c #929291",
"f#	c #848484",
"g#	c #B9BAB9",
"h#	c #B5B5B4",
"i#	c #727272",
"j#	c #A5A5A4",
"k#	c #BCBDBB",
"l#	c #4A4A49",
"m#	c #727271",
"n#	c #BFC0BF",
"o#	c #A5A6A4",
"p#	c #BFBFBE",
"q#	c #C3C2C1",
"r#	c #666565",
"s#	c #AAABA9",
"t#	c #C3C2C2",
"u#	c #9E9E9E",
"v#	c #B0B0AF",
"w#	c #989898",
"x#	c #B2B1B0",
"y#	c #525252",
"z#	c #C3C3C1",
"A#	c #B2B2B1",
"B#	c #C0C0BE",
"C#	c #565656",
"D#	c #5E5E5E",
"E#	c #494948",
"F#	c #737373",
"G#	c #A6A7A5",
"H#	c #999998",
"I#	c #7F7F7F",
"J#	c #C4C3C2",
"K#	c #C0BFBF",
"L#	c #C0BFBE",
"M#	c #3A86D2",
"N#	c #4697D9",
"O#	c #3B8DD9",
"P#	c #3689D7",
"Q#	c #2F81D5",
"R#	c #2A7ED4",
"S#	c #287ED5",
"T#	c #2A80D7",
"U#	c #2A80D5",
"V#	c #2C80D6",
"W#	c #2473CF",
"X#	c #95AAD7",
"Y#	c #BCBCBB",
"Z#	c #838282",
"`#	c #888887",
" $	c #636363",
".$	c #BBBABA",
"+$	c #BEBDBC",
"@$	c #BDBEBC",
"#$	c #C0C1BF",
"$$	c #6B6B6A",
"%$	c #C1C1BF",
"&$	c #7D7D7D",
"*$	c #323332",
"=$	c #696969",
"-$	c #8B8B8B",
";$	c #A4A4A4",
">$	c #B3B4B2",
",$	c #5C5C5B",
"'$	c #C1C0C0",
")$	c #4B4C4B",
"!$	c #484848",
"~$	c #9A9B9A",
"{$	c #C0C1C0",
"]$	c #BDBDBB",
"^$	c #5588D7",
"/$	c #3F8FD6",
"($	c #3687D8",
"_$	c #2D7FD3",
":$	c #297DD3",
"<$	c #297DD5",
"[$	c #257BD2",
"}$	c #247CD3",
"|$	c #277BD3",
"1$	c #2B7FD5",
"2$	c #297ACB",
"3$	c #7B96CD",
"4$	c #BDBDBD",
"5$	c #BEBEBC",
"6$	c #BDBEBD",
"7$	c #A2A1A1",
"8$	c #BABAB9",
"9$	c #BFBEBD",
"0$	c #BFBEBE",
"a$	c #BEBFBD",
"b$	c #BBBBB9",
"c$	c #BABBBA",
"d$	c #B4BDD3",
"e$	c #2F82D0",
"f$	c #247ED6",
"g$	c #247CD5",
"h$	c #227CD2",
"i$	c #227CD4",
"j$	c #2479D3",
"k$	c #227AD3",
"l$	c #237BD2",
"m$	c #2874C2",
"n$	c #BEC1C5",
"o$	c #BABBB9",
"p$	c #A0A09F",
"q$	c #B8B8B7",
"r$	c #B8B9B7",
"s$	c #BCBBBA",
"t$	c #BBBCBA",
"u$	c #BCBCBA",
"v$	c #BBBBBB",
"w$	c #BCBBBB",
"x$	c #BBBCBB",
"y$	c #B9B8B6",
"z$	c #7199D4",
"A$	c #3386D4",
"B$	c #2A7BD4",
"C$	c #287ED1",
"D$	c #2B7DD1",
"E$	c #2F81D3",
"F$	c #297FD2",
"G$	c #2C7ED4",
"H$	c #2C81D4",
"I$	c #3180CB",
"J$	c #81A1D0",
"K$	c #B9B8B8",
"L$	c #B9B8B7",
"M$	c #B8B8B8",
"N$	c #9D9D9C",
"O$	c #B5B6B4",
"P$	c #B9B9B7",
"Q$	c #9E9D9C",
"R$	c #B8B9B8",
"S$	c #B9BAB8",
"T$	c #BAB9B8",
"U$	c #BABAB8",
"V$	c #BAB9B9",
"W$	c #B6B6B4",
"X$	c #B6B5B4",
"Y$	c #6494D4",
"Z$	c #2479C9",
"`$	c #247AC7",
" %	c #2B74C1",
".%	c #5888C8",
"+%	c #5C89CA",
"@%	c #3577C5",
"#%	c #2B77C3",
"$%	c #2A76C4",
"%%	c #6F94C8",
"&%	c #B7B6B5",
"*%	c #B7B7B5",
"=%	c #B6B7B5",
"-%	c #B7B6B6",
";%	c #B7B7B6",
">%	c #B6B7B6",
",%	c #B8B7B6",
"'%	c #B7B8B6",
")%	c #B4B3B1",
"!%	c #B4B4B2",
"~%	c #B0BCCF",
"{%	c #A5BDE1",
"]%	c #BBBEC2",
"^%	c #ACC4DE",
"/%	c #B8CAE0",
"(%	c #B4B3B2",
"_%	c #B4B3B3",
":%	c #B5B5B2",
"<%	c #B4B5B2",
"[%	c #B5B4B3",
"}%	c #B5B5B3",
"|%	c #B4B5B3",
"1%	c #B4B4B4",
"2%	c #B4B5B4",
". + @ . @ # . $ % $ . . . . & . . . . . . # # # # # # # # # # # # # # # # # # # # # # # # # # # # # # # # # # # # # # # # # # # # # # # # # # # # # # # # # # # # # # # # # # # # # # # # # # # # # # # # # # # # # ",
"* = - - = * ; > = * , ' - ) ! ! * ~ ! > > - ; > ) ) ) = = ~ > ~ ) ) ) ! ) ~ ! ) ) ) ) ) ) > ) ) ) ) ) ) ) ) ) ) ) { ) ] ^ ] / ) ) { ( ] { / _ _ _ _ ( ^ { ] { _ ( ) ] ) ( _ # # # # _ ( ( # ^ ( # / ] # # # # _ _ # ",
": < : : : [ : : : } | 1 2 : 2 : : 2 : : 3 2 : : 2 3 : 3 : 3 : 3 3 : 4 3 4 5 6 3 7 5 8 5 2 4 7 6 8 : 8 6 7 2 5 6 5 8 4 6 4 3 5 7 5 5 5 8 5 5 5 5 5 5 5 5 9 5 5 5 5 5 5 5 0 0 5 5 9 5 5 9 5 a 9 b a 5 9 5 c 9 b 5 b a ",
"d e f g g f h i j k l i m m h g h e g f f h i g i g h h g h h h h g g g g g g n g g o g g g o g o g g p o n g n n o g o q n r o p s o q q t g s q t g q s o s o q s q t q q s s s q q s s s q s s s s s s u s s s u ",
"v w x y w y y w z A y w y B C B B w D D y w D B E C F w w y B G y w y F B y B C B C B D C F B B D B B B B C B F C C C B C C C C C C H I C I I C C I H C H C C I C H I C C J m H H H H H C J m K I H L C J m H J M J ",
"N O N O P Q R S N N T U V W O O O O N N N N N N X N N N N O O Y X N N N Y N N Z Y N Y N N Y N N Y `  ...+. ...N @.@.Y Z Y X #.Y $.Z @.X $.$.#.@.#.Z #.#.%. .&.#.#.Z #.#.#.#.#.#.#.#.#.*.=.#.#.#.#.#.#.#.#.=.=.=.*.-.",
";.>.,.'.).!.~.{.].^./.(._.:.<.;.>.;.....;.;.;.[.;.,.&.}. .|.;.;.&.&.[.,.&.&.&.;.&.;.;.&.&.;.;.;.&.1. .2.1. .2.&.&.;.&.&.3.4.;.5.&.5.&.&.&.3.5.1. .2.5.5.6. .7.3.5.&.4.3.3.8.3.9.4.9.4.8.8.8.8.9.3.4.3.8.3.3.8.8.8.8.",
"0.2.a.b.c.d.e.f.g.h.i.j.k.l.m.n.o.p.q.n.2.2.0.2.p.7.r.s.t.u.p.2.0.p.7.2.n.n.p.7.p.7.7.v.2.7.2.v.7.w. .x.y.z.7.7.A.7.A.A.7.A.7.A.7.7.A.7.A.7.A.w. .B.C.A.D.E.F.A.7.7.7.A.G.A.C.C.H.A.I.A.C.A.A.A.A.H.G.H.G.G.G.A.J.H.",
"K.L.M.N.O.P.Q.R.S.T.U.V.W.X.Y.x.x.Z.B.B.`.`.`.`.B.`. +.+++@+#+`.`.$+ .%+&+*+=+E.B.$+ .%+&+*+-+;+B.>+ .,+$+ .'+`.)+!+~+{+.+]+^+y./+(+*+_+:+<+[+}+ .{+{+|+>+ .1+y.2+3+4+s.5+6+y.>+ .7+8+}+9+0+y.y.a+b+c+d+e+D.D.y.D.D.",
",+f+R.g+h+i+j+k+l+m+n+o+p+q+r+,+r.,+'+'+,+r.,+1+r.1+s+t+'+u+v+1+r.w+ .x+y+z+t.A+1+w+ .B+C+D+t.A+1+w+ .E+w+ .;+F+-+G+H+1+I+J+1+1+K+L+M+D+N+O+F+w+ .E.F+P+Q+ .R+F+S+T+U+V+t.A+W+X+ .Y+Z+`+ @.@+@@@ .#@$@Z+%@$@F+$@$@$@",
"E+&@*@=@-@;@V.>@,@'@)@!@~@{@;+;+;+E+E+;+E+R+;+]@E+^@ ./@]@(@_@;+R+:@ .H+;+E.<@b+;+[@ .}@E+|@1@b+|@[@ .2@3@ .2@4@5@6@;+E.;+|@|@E.|@|@|@|@7@4+|@3@ .8@|@|@3@ .8@9@ .H+0@0@ +b+0@3@ .a@0@|@b@@+0@c@d@e@<+f@0@)+0@0@0@g@",
"h@&@i@j@k@l@m@n@o@p@q@r@s@t@u@v@8@8@2@v@v@u@v@v@8@w@x@8@8@$+ .#@8@++ .y@v@v@z@A@8@++ .Z+B@B@z@A@`+C@ .D@C@ .E@F@ .G@B@H@B@B@8@I@ +J@_+4+*+ .H@K@ .L@M@H@N@ .O@P@ .Q@H@M@R@A@M@K@ .O@B@H@N@ .M@M@7+S@c+J@T@M@M@M@M@U@",
"D@V@W@X@Y@Z@`@ #.#+#@#@###$#%#%#%#%#&#D@%#*#%#O@<+=#@+.+.+.+ .-#%#;# .Q+*#*#>#d+O@,# .'#%#*#>#d+*#,# .Z+,# .)#@@5@,#*#*#*#L@C+!#A@~#{#*#]# .C+^# ./#(#*#,# ._#:# .<#C+U+>#d+C+^# ./#[#[#,# .*#*#*#C+<+}#.+U+|#U+|#*#",
"#+1#2#3#4#5#6#7#8###9#0#a#b#c#Z+d#Z+Z+Z+Z+Z+Z+Z+e#A@,#^@^@^@f#}+g#J+ .3+c@h#t.i#/#j# .3+k#+.l#m#Q@j# .n#o# .p#q#r#t.s#t#@@u#G@v# .w#Q@x#y# .z#A# .3@t#Q@/@ .B#Q@C#D#9@h#E#F#Q@/@ .{#Q@Q@G# .Q@v#H#z+<+I#=#J#Q@I+Q@Q@",
"K#L#M#N#O#P#8#Q#R#S#T#U#U#V#W#X#B#p#{#4@{#{#B#K#C#3+p#p#K#n#Y#=#Z#7@ .`#b+c+ $.$4@7@ .`#b+c+ $@@{#7@ .+$7@ .@$#$Y#F#b+c+s.$$%${#&$.+*$l#f# .{#{#=$4+4+-$;$ .z+2+>$,$4+_+=+k#<+7@ .z+'$<+;$ .#$[@)$*+}+!$~$%${$%${$<+",
"]$9@^$/$($0#_$:$<$[$}$[$|$1$2$3$9@9@9@9@+$9@9@@$@$@$9@+$4$+$5$6$@$7$ .8$6$@$6$5$5$7$ .8$5$V+9@4$5$9@9@4$6$V+z++$9@6$9@6$6$5$V+5$z+z+5$z+z+5$z+z+z+z+z+z+z+z+z+z+z+z+z+z+z+z+z+9$0$a$z+z+z+z+0$z+z+a$0$z+z+z+z+z+z+9$",
"b$c$d$e$V#S#f$g$h$i$j$k$l$U#m$n$o$c$c$@@.$@@c$c$b$@@b$@@@@@@@@@@@@p$ .q$@@@@@@b$b$p$ .r$@@@@@@@@@@@@@@s$s$t$u$u$u$@@u$u$s$@@@@v$s$w$t$s$t$w$u$s$x$t$t$u$u$x$w$u$Y#u$u$Y#w$w$v$Y#Y#Y#u$Y#Y#u$Y#Y#Y#Y#Y#Y#Y#Y#Y#Y#Y#Y#",
"q$q$y$z$A$_$B$C$D$E$F$G$H$I$J$q$q$q$q$K$L$L$L$r$q$r$q$M$L$q$r$a@M$N$ .O$P$q$P$P$P$Q$ .+.a@L$r$R$L$P$a@a@a@a@a@P$L$a@P$a@a@a@a@P$a@a@a@a@a@a@a@S$T$S$a@a@T$S$a@a@:#U$a@a@U$S$T$V$U$S$T$U$T$S$U$U$S$8$T$V$8$S$U$U$T$T$",
"W$W$X$X$Y$Z$`$ %.%+%@%#%$%%%` ` ` ` W$` ` ` &%W$` ` ` ` W$&%` ` ` ` &%` ` &%&%*%` =%=%=%&%` =%&%&%*%*%-%*%*%*%&%%.*%&%;%=%%.&%;%=%-%&%-%*%=%>%;%&%;%=%>%;%;%*%%.;%*%;%*%*%*%;%;%;%;%;%;%;%;%,%;%;%;%;%,%;%,%'%,%;%;%",
"^@>$)%>$!%~%{%]%^@!%0+^%/%(%^@!%^@0+!%>$^@^@!%!%(%_%0+(%>$1.!%0+!%0+!%0+0+(%0+!%0+0+0+!%!%0+!%0+0+0+0+0+0+!%:%0+<%0+0+0+0+!%0+[%}%!%}%|%0+[%0+|%}%}%[%0+0+}%[%0+[%0+[%0+}%[%h#1%|%h#}%[%|%h#h#}%[%}%2%h#|%L+}%0+}%L+"};
