/* XPM */
static char * collapse_xpm[] = {
"15 23 63 1",
" 	c None",
".	c #DFDFDF",
"+	c #DDDCDD",
"@	c #DADADA",
"#	c #D8D8D8",
"$	c #D6D5D6",
"%	c #ABAAAB",
"&	c #BBBABB",
"*	c #D3D3D3",
"=	c #A8A8A8",
"-	c #555753",
";	c #B1B1B1",
">	c #D1D0D0",
",	c #A7A6A6",
"'	c #AFAEAE",
")	c #CFCFCD",
"!	c #A5A5A4",
"~	c #C6C7C5",
"{	c #ADADAC",
"]	c #CCCCCC",
"^	c #A3A3A3",
"/	c #ABABAB",
"(	c #CAC9C9",
"_	c #A1A0A0",
":	c #989A96",
"<	c #A9A8A8",
"[	c #C7C7C6",
"}	c #9F9F9E",
"|	c #AEB0AC",
"1	c #9C9E9A",
"2	c #A7A7A6",
"3	c #C5C4C4",
"4	c #DCDBDB",
"5	c #CECFCD",
"6	c #C3C4C2",
"7	c #BBBCBA",
"8	c #A7A9A5",
"9	c #A5A4A4",
"0	c #C3C3C1",
"a	c #DBDBD9",
"b	c #D0D1CF",
"c	c #C5C6C4",
"d	c #B3B4B2",
"e	c #A3A3A1",
"f	c #C0C0BF",
"g	c #D9D9D8",
"h	c #D7D8D6",
"i	c #B7B8B6",
"j	c #A1A1A0",
"k	c #BEBEBD",
"l	c #D8D8D7",
"m	c #BBBBBA",
"n	c #D6D6D5",
"o	c #9C9C9C",
"p	c #B8B9B8",
"q	c #D4D5D4",
"r	c #9A9B9A",
"s	c #B6B6B5",
"t	c #D3D3D2",
"u	c #959594",
"v	c #B4B4B2",
"w	c #D2D2D0",
"x	c #B2B2B0",
"...............",
"+++++++++++++++",
"@@@@@@@@@@@@@@@",
"###############",
"$$$$$$$$$%&$$$$",
"********=-;****",
">>>>>>>,--'>>>>",
"))))))!-~-{))))",
"]]]]]^-~~-/]]]]",
"((((_-~:~-<((((",
"[[[}-~|1~-2[[[[",
"334-5678~-93333",
"000a-bcd~-e0000",
"ffffg-hi~-jffff",
"kkkkkl-~~-}kkkk",
"mmmmmmn-~-ommmm",
"pppppppq--rpppp",
"sssssssst-ussss",
"vvvvvvvvvw!vvvv",
"xxxxxxxxxxxxxxx",
"xxxxxxxxxxxxxxx",
"xxxxxxxxxxxxxxx",
"xxxxxxxxxxxxxxx"};
