/* XPM */
static char * expand_xpm[] = {
"15 23 63 1",
" 	c None",
".	c #DFDFDF",
"+	c #DDDCDD",
"@	c #DADADA",
"#	c #D8D8D8",
"$	c #D6D5D6",
"%	c #BBBABB",
"&	c #ABAAAB",
"*	c #D3D3D3",
"=	c #B1B1B1",
"-	c #555753",
";	c #A8A8A8",
">	c #D1D0D0",
",	c #AFAEAE",
"'	c #A7A6A6",
")	c #CFCFCD",
"!	c #ADADAC",
"~	c #C6C7C5",
"{	c #A5A5A4",
"]	c #CCCCCC",
"^	c #ABABAB",
"/	c #A3A3A3",
"(	c #CAC9C9",
"_	c #A9A8A8",
":	c #989A96",
"<	c #A1A0A0",
"[	c #C7C7C6",
"}	c #A7A7A6",
"|	c #9C9E9A",
"1	c #AEB0AC",
"2	c #9F9F9E",
"3	c #C5C4C4",
"4	c #A5A4A4",
"5	c #A7A9A5",
"6	c #BBBCBA",
"7	c #C3C4C2",
"8	c #CECFCD",
"9	c #DCDBDB",
"0	c #C3C3C1",
"a	c #A3A3A1",
"b	c #B3B4B2",
"c	c #C5C6C4",
"d	c #D0D1CF",
"e	c #DBDBD9",
"f	c #C0C0BF",
"g	c #A1A1A0",
"h	c #B7B8B6",
"i	c #D7D8D6",
"j	c #D9D9D8",
"k	c #BEBEBD",
"l	c #D8D8D7",
"m	c #BBBBBA",
"n	c #9C9C9C",
"o	c #D6D6D5",
"p	c #B8B9B8",
"q	c #9A9B9A",
"r	c #D4D5D4",
"s	c #B6B6B5",
"t	c #959594",
"u	c #D3D3D2",
"v	c #B4B4B2",
"w	c #D2D2D0",
"x	c #B2B2B0",
"...............",
"+++++++++++++++",
"@@@@@@@@@@@@@@@",
"###############",
"$$$$%&$$$$$$$$$",
"****=-;********",
">>>>,--'>>>>>>>",
"))))!-~-{))))))",
"]]]]^-~~-/]]]]]",
"((((_-~:~-<((((",
"[[[[}-~|1~-2[[[",
"33334-~5678-933",
"0000a-~bcd-e000",
"ffffg-~hi-jffff",
"kkkk2-~~-lkkkkk",
"mmmmn-~-ommmmmm",
"ppppq--rppppppp",
"sssst-ussssssss",
"vvvv{wvvvvvvvvv",
"xxxxxxxxxxxxxxx",
"xxxxxxxxxxxxxxx",
"xxxxxxxxxxxxxxx",
"xxxxxxxxxxxxxxx"};
