/* XPM */
static char * windows_xpm[] = {
"20 20 63 1",
" 	c None",
".	c #BABDB6",
"+	c #FFFFFF",
"@	c #FEFEFE",
"#	c #95B7E4",
"$	c #FDFDFD",
"%	c #FCFCFB",
"&	c #89B0E0",
"*	c #89B0E1",
"=	c #8AB0E1",
"-	c #8AB1E1",
";	c #8BB1E1",
">	c #8CB2E1",
",	c #8CB1E1",
"'	c #FBFBFB",
")	c #FAFBFA",
"!	c #F9F9F9",
"~	c #E2E3E0",
"{	c #F8F8F8",
"]	c #F6F6F6",
"^	c #F5F6F6",
"/	c #F7F7F7",
"(	c #F4F3F3",
"_	c #F3F3F3",
":	c #6198D5",
"<	c #6298D5",
"[	c #6399D5",
"}	c #6499D6",
"|	c #659AD5",
"1	c #6599D5",
"2	c #F2F2F2",
"3	c #EEEEEE",
"4	c #EFEFEF",
"5	c #5590D1",
"6	c #548FD1",
"7	c #5691D1",
"8	c #5690D1",
"9	c #5691D2",
"0	c #5791D1",
"a	c #5791D2",
"b	c #EFEFF0",
"c	c #EBEAEA",
"d	c #EAEAEA",
"e	c #F8F9F8",
"f	c #EEEFEE",
"g	c #E5E5E6",
"h	c #E5E5E5",
"i	c #F6F5F6",
"j	c #F6F5F5",
"k	c #F5F5F5",
"l	c #F3F2F2",
"m	c #EFF0EF",
"n	c #F0EFEF",
"o	c #F2F3F3",
"p	c #F2F2F3",
"q	c #F3F2F3",
"r	c #F1F2F1",
"s	c #E9E9E9",
"t	c #EAE9E9",
"u	c #EAE9EA",
"v	c #E5E6E5",
"w	c #EEEEED",
"x	c #EFF0F0",
"                    ",
"                    ",
"   ..........       ",
"  .++++++++++.      ",
"  .@########$.      ",
"  .%&&*=-;>,'.      ",
"  .)!!~..........   ",
"  .{]^.++++++++++.  ",
"  ./(_.@:<<[[}|1$.  ",
"  .234.%5657890a'.  ",
"  .bcd.)!!!e{{{{e.  ",
"  .fgh.{]^i]jkjj/.  ",
"  .lmn./(___o_pq].  ",
"   ....234444443r.  ",
"      .bcdddsdtu4.  ",
"      .fghvhhhhhw.  ",
"      .lmn4x44n44.  ",
"       ..........   ",
"                    ",
"                    "};
